<?xml version="1.0" encoding="utf-8"?>
<!-- Generator: Adobe Illustrator 26.0.3, SVG Export Plug-In . SVG Version: 6.00 Build 0)  -->
<svg version="1.1" id="Capa_1" xmlns="http://www.w3.org/2000/svg" xmlns:xlink="http://www.w3.org/1999/xlink" x="0px" y="0px"
	 viewBox="0 0 960 750" style="enable-background:new 0 0 960 750;" xml:space="preserve">
<style type="text/css">
	.st0{fill:#E95323;}
	.st1{clip-path:url(#SVGID_00000158732501724055971050000005103557366427818913_);fill:#D34D27;}
	.st2{clip-path:url(#SVGID_00000101799808171591521650000013365184246199596931_);fill:#D34D27;}
	.st3{clip-path:url(#SVGID_00000143607053347570588700000006690192703176949655_);fill:#D34D27;}
	.st4{clip-path:url(#SVGID_00000025417510174162518120000001249445221473506226_);fill:#D34D27;}
	.st5{clip-path:url(#SVGID_00000080168163680860934150000014504264046258389148_);fill:#D34D27;}
	.st6{fill:#FFFFFF;}
	.st7{fill:#5C5C5B;}
	.st8{clip-path:url(#SVGID_00000096759084086610324630000000456003439026413480_);fill:#444343;}
	.st9{clip-path:url(#SVGID_00000096759084086610324630000000456003439026413480_);fill:#9F9F9E;}
	.st10{fill:#B4B3B3;}
	.st11{clip-path:url(#SVGID_00000044893542920693621480000002349574050568821154_);fill:#9F9F9E;}
	.st12{clip-path:url(#SVGID_00000044893542920693621480000002349574050568821154_);fill:#8A8A89;}
	.st13{fill:#2B2B2A;}
	.st14{clip-path:url(#SVGID_00000121266696166200506210000004661315379740281473_);fill:#D34D27;}
	.st15{clip-path:url(#SVGID_00000173141375954152469870000002712222986704961939_);fill:#E95323;}
	.st16{clip-path:url(#SVGID_00000173141375954152469870000002712222986704961939_);fill:#D34D27;}
	.st17{clip-path:url(#SVGID_00000146459222137411913190000003173594862481082557_);fill:#D34D27;}
	.st18{clip-path:url(#SVGID_00000093153446664837476750000012833006905833985956_);fill:#D34D27;}
	.st19{clip-path:url(#SVGID_00000049185657147230666030000004927936850799997841_);fill:#D34D27;}
	.st20{fill:#00A5A8;}
	.st21{clip-path:url(#SVGID_00000106121628903082788020000008701986329445030325_);fill:#3F757C;}
	.st22{opacity:0.4;clip-path:url(#SVGID_00000106121628903082788020000008701986329445030325_);}
	.st23{clip-path:url(#SVGID_00000095306855869213184410000013649392157649850763_);fill:#FFFFFF;}
	.st24{clip-path:url(#SVGID_00000021113701129960585360000009266144707631227284_);fill:#D34D27;}
	.st25{clip-path:url(#SVGID_00000040551234189781494150000000413944340248896130_);fill:#D34D27;}
	.st26{clip-path:url(#SVGID_00000178185209449231406610000014552459408593463715_);}
	.st27{fill:#F8B133;}
	.st28{opacity:0.4;clip-path:url(#SVGID_00000098217714015960640450000016078049444564328103_);}
	.st29{opacity:0.7;fill:#FFFFFF;}
	.st30{opacity:0.7;fill:none;}
</style>
<g>
	<defs>
		<rect id="SVGID_00000005259575165322304780000016633406975606030769_" x="-0.5" width="961.1" height="750"/>
	</defs>
	<clipPath id="SVGID_00000152942495039600714310000016675033344665470354_">
		<use xlink:href="#SVGID_00000005259575165322304780000016633406975606030769_"  style="overflow:visible;"/>
	</clipPath>
	<g style="clip-path:url(#SVGID_00000152942495039600714310000016675033344665470354_);">
		
			<image style="overflow:visible;opacity:0.5;" width="1050" height="1261" xlink:href="EF55F5664388F35.png"  transform="matrix(1 0 0 1 -42.1048 -159.1048)">
		</image>
		<g>
			<path class="st27" d="M-18-144.6l-17.5,1225.2H977.9V-135.9L-18-144.6z"/>
		</g>
	</g>
	<g style="clip-path:url(#SVGID_00000152942495039600714310000016675033344665470354_);">
		<defs>
			<path id="SVGID_00000050657523366825197630000016425529797715053999_" d="M-18-144.6l-17.5,1225.2H971.3V-135.9L-18-144.6z"/>
		</defs>
		<clipPath id="SVGID_00000165234611287060615840000012937426802775816870_">
			<use xlink:href="#SVGID_00000050657523366825197630000016425529797715053999_"  style="overflow:visible;"/>
		</clipPath>
		<g style="opacity:0.4;clip-path:url(#SVGID_00000165234611287060615840000012937426802775816870_);">
			<path class="st29" d="M38.1,922.2C-74.3,837-168,776-258.6,717c-34.1-22.2-67.3-43.8-100.3-66v1.8c32.6,21.9,65.5,43.3,99.1,65.2
				C-169.2,777-75.6,838,36.9,923.2c25,18.9,41.1,36.4,61.5,58.5c16.8,18.2,35.8,38.8,63.9,64.7h2.3c-28.5-26.3-47.7-47.1-64.7-65.5
				C79.4,958.7,63.2,941.2,38.1,922.2"/>
			<path class="st29" d="M79.5,975.1C-33,889.9-126.6,828.9-217.2,769.9c-48.3-31.5-95-61.8-141.7-94.2v1.8
				c46.3,32,92.6,62.2,140.5,93.4c90.6,59,184.2,119.9,296.7,205.1c25,18.9,41.1,36.4,61.5,58.5c3.5,3.8,7.2,7.7,10.9,11.8h2.2
				c-4-4.3-7.9-8.5-11.7-12.6C120.8,1011.6,104.6,994.1,79.5,975.1"/>
			<path class="st29" d="M63.5,913.3c-17-18.4-31-33.6-49.6-49c3.3,2,6.1,3.7,8.9,5.3c9.9,5.7,19.3,11.2,46.3,32.8
				c22.7,18.2,37.1,37,52.4,56.9c12.8,16.7,26.9,35.1,47.8,55.6C116,970.2,87.6,939.4,63.5,913.3 M-255.5,675.2
				c8.5,4.7,15.7,8.4,22.8,12c13.7,7,26.6,13.6,47.7,27.4c21.9,14.3,31.9,23.2,43.4,33.4c5.6,5,11.5,10.2,19.2,16.5
				C-169,732.1-212.9,703.1-255.5,675.2 M191.3,1033c-32.9-28.3-51.7-52.8-68.3-74.4c-15.3-20-29.8-38.9-52.6-57.1
				c-27.1-21.7-36.5-27.1-46.5-32.9c-7.5-4.3-15.2-8.8-30.9-20.5l0,0c-30-22.6-58.6-43.4-86.2-63c-24.3-17.7-36.3-28.4-47.2-38
				c-11.6-10.3-21.6-19.2-43.6-33.6c-21.2-13.9-34.2-20.5-47.9-27.5c-15.6-8-31.8-16.2-62.2-35.9c-0.3-0.2-0.7-0.4-1-0.7
				c-21.6-14.1-42.9-27.9-63.9-41.8v1.8c20,13.2,40.2,26.3,60.7,39.7c1,0.6,1.9,1.3,2.9,1.9c63.6,41.4,128.8,83.9,201,135
				c4.5,3.3,9.4,6.8,14.8,10.6l0,0c25.7,18.4,52.3,37.9,80,59c25,18.9,41.1,36.4,61.5,58.5c29.3,31.7,64.9,70.3,143.6,132.3h2.5
				C202.3,1041.8,196.7,1037.3,191.3,1033L191.3,1033z"/>
			<path class="st29" d="M16.2,945.3C-96.3,860.1-190,799.1-280.6,740.1c-26.5-17.3-52.6-34.2-78.4-51.3v1.8
				c25.4,16.9,51.1,33.6,77.2,50.6c90.6,59,184.2,119.9,296.7,205.1c25,18.9,41.1,36.4,61.5,58.5c11.5,12.5,24,26,39.7,41.6h2.3
				c-16.1-15.9-28.8-29.7-40.5-42.4C57.5,981.8,41.3,964.3,16.2,945.3"/>
			<path class="st29" d="M-30.7,939.2c-16.5-8.7-39.2-20.6-84.3-54.1c-38.9-28.9-59.9-47.8-78.4-64.5
				c-15.6-14.1-29.9-26.9-52.2-43.6c63.6,42.2,130.8,88.7,206.7,146.1c16.6,12.6,29.3,24.5,42,37.7
				C-9.4,950.4-18.5,945.6-30.7,939.2 M-37.6,922.2C-150.1,837-243.8,776-334.4,717c-8.2-5.4-16.4-10.7-24.5-16v1.8
				c7.7,5.1,15.5,10.1,23.4,15.2c12.2,8,24.6,16,37,24.1c57.1,37.3,78.8,56.8,103.9,79.4c18.5,16.7,39.5,35.6,78.5,64.6
				c45.2,33.5,67.9,45.5,84.5,54.2c16.5,8.7,27.4,14.4,49.1,35.7c1.7,1.9,3.5,3.7,5.2,5.7c16.8,18.2,35.8,38.8,63.9,64.7h2.3
				c-28.5-26.3-47.7-47.1-64.7-65.5C3.6,958.7-12.6,941.2-37.6,922.2"/>
			<path class="st29" d="M9,881.8c-112.5-85.2-206.2-146.2-296.8-205.2c-24-15.7-47.7-31-71.1-46.5v1.8
				c23.1,15.2,46.3,30.4,69.9,45.8c90.6,59,184.2,119.9,296.7,205.1c25,18.9,41.1,36.4,61.5,58.5c24.7,26.8,54.1,58.5,110.1,105.1
				h2.4c-56.6-47.1-86.1-79-111-105.9C50.2,918.3,34,900.8,9,881.8"/>
			<path class="st29" d="M-112.5,699.3C-213,623.2-253.8,579-286.6,543.5c-20.5-22.2-36.7-39.7-61.7-58.7c-3.5-2.7-7-5.3-10.5-8v1.9
				c3.1,2.3,6.2,4.7,9.3,7c25,18.9,41.1,36.4,61.5,58.5c32.8,35.5,73.7,79.8,174.3,156C-37.1,758.4,36.8,806.5,115,857.4
				c84.7,55.2,172.2,112.1,275.2,189h2.5c-103.6-77.4-191.4-134.6-276.5-190C38,805.5-35.9,757.4-112.5,699.3"/>
			<path class="st29" d="M249.4,982.9c-3.6-3.7-7.8-7.5-12.6-11.2c-4.3-3.7-8.9-7.3-13.8-11l0,0C110.5,875.4,16.8,814.4-73.8,755.4
				c-70.5-45.9-137.4-89.5-206.1-140.1c-13.9-10.4-19.5-17.9-25.5-25.8c-7-9.2-15-19.7-37.8-36.7c-5.7-4.2-10.9-7.9-15.7-11.3v1.8
				c4.5,3.1,9.3,6.6,14.5,10.4c22.7,16.8,30.3,26.8,37.5,36.4c3.2,4.3,6.4,8.4,10.8,13c-2.1-1.6-4.2-3.2-6.3-4.8
				c-21.3-16.2-40-30.9-56.4-44.4v2c16.1,13.2,34.4,27.6,55.2,43.3c7.6,5.7,15.1,11.4,22.6,16.9c0,0,0,0,0.1,0.1l0,0
				c68.6,50.7,135.6,94.3,206.1,140.2c90.6,59,184.2,119.9,296.7,205.1c4.8,3.7,9.4,7.3,13.6,10.9l0,0c0,0,0.1,0.1,0.1,0.1
				c4.4,3.7,8.5,7.4,12.5,11.1c8.9,9.2,14.9,18.4,21.4,28.7c6.5,10.1,13.7,21.3,24.9,34h2.2c-11.6-13-18.9-24.4-25.5-34.6
				c-3.6-5.7-7.1-11-11-16.3c7.6,7.7,15.1,15.8,23.2,24.6c7.6,8.2,15.6,16.9,24.7,26.3h2.2c-9.4-9.7-17.6-18.6-25.4-27.1
				C272.3,1005.9,261.5,994.2,249.4,982.9"/>
			<path class="st29" d="M208.3,981c-13.2-15.1-26.9-30.7-54.6-53.2c-27.7-22.4-40.4-29.4-55.2-37.6c-12.1-6.6-25.8-14.2-50.4-32.1
				C-50.6,785-135.2,730-217.2,676.6c-48.3-31.5-95-61.9-141.7-94.2v1.8c46.3,32,92.6,62.2,140.5,93.4
				C-136.4,731-51.9,786,46.7,859.1v0c0.1,0,0.1,0.1,0.2,0.1c10.3,7.6,20.7,15.5,31.4,23.5c25,18.9,41.1,36.4,61.5,58.5
				c24.7,26.8,54.1,58.5,110.1,105.1h2.4c-56.6-47.1-86.1-79-111-105.9c-20.5-22.2-36.7-39.7-61.7-58.7c-1.5-1.1-3-2.2-4.5-3.4
				c8.9,5.6,15.9,9.4,22.4,13c14.7,8.1,27.3,15,54.9,37.4c27.6,22.4,41.2,37.9,54.5,53c11.3,12.9,21.9,25,40.4,40.6
				c12.6,10.6,18.6,17.7,22.7,24h2c-4.2-6.5-10.2-13.8-23.4-24.9C230.2,1006,219.6,993.9,208.3,981"/>
			<path class="st29" d="M339.4,1028.4C226.9,943.2,133.2,882.2,42.6,823.3c-78.2-50.9-152.1-99-228.7-157.1
				C-285.3,591-326.3,547-358.9,511.8v2.4c32.4,35,73.7,78.9,171.5,153c76.7,58.1,150.6,106.2,228.8,157.1
				c90.6,59,184.2,119.9,296.7,205.1c7.6,5.7,14.3,11.3,20.6,17h2.3C354.5,1040.4,347.4,1034.5,339.4,1028.4L339.4,1028.4z"/>
			<path class="st29" d="M-227.7,570.5c7.7,6.4,14.5,11,21.6,15.8c12.9,8.7,26.3,17.7,46.9,39.2c9.1,9.5,17.1,18.1,24.2,25.7
				c13.4,14.5,24.9,26.8,38.1,39.1C-165.5,636-200.4,600-227.7,570.5 M402.4,1034.4c-86-62.4-161.7-111.7-235.2-159.6
				C88.9,824,15.1,775.9-61.6,717.8c-2.7-2-5.3-4.1-7.9-6c-26.6-20.9-42.8-38.3-64.1-61.2c-7.1-7.6-15.1-16.3-24.2-25.7
				c-20.7-21.6-34.2-30.7-47.2-39.5c-12.2-8.2-23.7-16-40.1-33.4c-16.4-17.6-31.2-32.6-52.4-48.6c-15.4-11.7-30.4-22.9-45.2-33.7h0
				c-5.5-4-11-8-16.4-11.9v1.9c4.6,3.3,9.2,6.7,13.8,10.1c15.2,11.1,30.6,22.6,46.5,34.6c20.9,15.9,35.7,30.7,51.9,48.1
				c0.1,0.1,0.1,0.2,0.2,0.2c3.1,3.3,6.2,6.7,9.4,10.2c32,34.6,71.5,77.4,166.3,149.9c4.1,3.3,8.5,6.6,13.3,10.1v0
				C17.3,779.1,89.6,826.1,166,875.9c73.9,48.1,149.9,97.6,236.4,160.4c4.6,3.3,9.2,6.7,13.8,10.1h2.6
				C413.2,1042.3,407.8,1038.4,402.4,1034.4"/>
			<path class="st29" d="M402.4-62.6L402.4-62.6c32.4,35,73.7,78.9,171.5,153c76.7,58.1,150.6,106.2,228.8,157.1
				c90.6,59,184.2,119.9,296.7,205.1h0c7.6,5.7,14.3,11.3,20.6,17c14.5,13,26.7,26.1,40.9,41.5c0.9,1,1.8,2,2.7,3v-2.4
				c-0.4-0.5-0.9-0.9-1.3-1.4c-13.9-15.1-25.9-28-40-40.7c-6.6-6-13.7-11.9-21.7-17.9v0c-112.5-85.2-206.2-146.2-296.8-205.2
				c-78.2-50.9-152.1-99-228.7-157.1C476,14.3,435-29.7,402.4-65v0c-0.4-0.5-0.9-0.9-1.3-1.4c-13.9-15.1-25.9-28-40-40.7h-2.3
				c14.5,13,26.7,26.1,40.9,41.5C400.5-64.6,401.5-63.6,402.4-62.6"/>
			<path class="st29" d="M528.5,110.4c13.7,7,26.6,13.6,47.7,27.4c21.9,14.3,31.9,23.2,43.4,33.4c5.6,5,11.5,10.2,19.2,16.5
				c-46.6-32.4-90.4-61.4-133.1-89.3C514.3,103.2,521.4,106.8,528.5,110.4 M784.2,292.9c9.9,5.7,19.3,11.2,46.3,32.8
				c22.7,18.2,37.1,37,52.4,56.9c12.8,16.7,26.9,35.1,47.8,55.6c-53.2-44.7-81.6-75.4-105.7-101.5c-17-18.4-31-33.6-49.6-49
				C778.5,289.6,781.4,291.2,784.2,292.9 M402.4,32.7L402.4,32.7c20,13.2,40.2,26.4,60.7,39.7c1,0.6,1.9,1.3,2.9,1.9
				c63.6,41.4,128.8,83.9,201,135c4.5,3.3,9.4,6.8,14.8,10.6l0,0c25.7,18.4,52.3,37.9,80,59c25,18.9,41.1,36.4,61.5,58.5
				c29.3,31.7,64.9,70.3,143.6,132.3c9.6,7.5,19.8,15.4,30.7,23.7c55.9,42.4,110.3,79.4,166,116.1v-1.8
				c-55.3-36.4-109.3-73.2-164.8-115.3c-10.5-7.9-20.3-15.5-29.5-22.7c-5.8-4.6-11.4-9.1-16.8-13.4l0,0
				c-32.9-28.3-51.7-52.8-68.3-74.4c-15.3-20-29.8-38.9-52.6-57.1c-27.1-21.7-36.5-27.1-46.5-32.9c-7.5-4.3-15.2-8.8-30.9-20.5l0,0
				c-30-22.6-58.6-43.4-86.2-63c-24.3-17.7-36.3-28.4-47.2-38c-11.6-10.3-21.6-19.2-43.6-33.6c-21.2-13.9-34.2-20.5-47.9-27.5
				c-15.7-8-31.8-16.2-62.2-35.9c-0.3-0.2-0.7-0.4-1-0.7c-21.6-14.1-42.9-27.9-64-41.8C347.1-5.5,293.1-42.3,237.6-84.3
				c-10.5-7.9-20.3-15.5-29.5-22.8h-2.5c9.6,7.5,19.8,15.4,30.7,23.7C292.3-41,346.7-4,402.4,32.7"/>
			<path class="st29" d="M-73,62.6c10.5,6.8,21.3,13.8,34.2,23c18.2,13,28.1,22.4,38.7,32.2c6.1,5.7,12.3,11.5,20.2,18.2
				c-17.4-12.4-34.8-25.2-52.4-38.6c-23.7-18-44.1-34.2-61.9-48.9C-87.3,53.4-80.3,57.8-73,62.6 M156.6,223.3
				c15.5,6.8,31.5,13.9,55.8,29.8c23.3,15.2,32.2,23.8,42.6,33.7c7,6.7,14.6,14,27.6,24.2c-29.4-19.5-57.9-38.1-86.2-56.5
				c-23.3-15.2-46.3-30.1-69.1-45.2C138.3,215.2,147.5,219.3,156.6,223.3 M688.2,639.3c10.5,6.8,21.3,13.8,34.2,23
				c18.2,13,28.1,22.4,38.7,32.2c6.1,5.7,12.3,11.5,20.2,18.2c-17.4-12.4-34.8-25.2-52.4-38.6c-23.7-18-44.1-34.2-61.9-48.9
				C674,630.1,681,634.6,688.2,639.3 M917.9,800c15.5,6.8,31.5,13.9,55.8,29.8c23.3,15.2,32.2,23.8,42.6,33.7
				c7,6.7,14.6,14,27.6,24.2c-29.4-19.5-57.9-38.1-86.2-56.5c-23.3-15.2-46.3-30.1-69.1-45.2C899.6,791.9,908.8,796,917.9,800
				 M-134.9,15.5c6.8,6.5,13.2,12,19.2,17c22.1,19.1,48.8,40.8,82.1,66c27.9,21.1,55.5,41,83,60.1c0.1,0.1,0.2,0.1,0.3,0.2l0,0
				c13.8,9.6,27.5,18.9,41.3,28.2l0,0c3.3,2.3,6.5,4.4,9.5,6.4c31.2,20.9,62.6,41.3,94.8,62.3c38.1,24.8,76.9,50,117.3,77.2
				c4.2,2.9,8.7,5.9,13.6,9.2l0,0c24.7,16.7,50,34.3,76.3,53c28.6,20.4,58.3,42.1,89.5,65.7c4,3,7.8,6,11.4,9
				c18.9,15.6,33,30.9,50.2,49.5c18.6,20.1,39.8,43.1,73,73c6.8,6.5,13.2,12,19.2,17c22.1,19.1,48.8,40.8,82.1,66
				c27.9,21.1,55.5,41,83,60.1c0.1,0.1,0.2,0.1,0.3,0.2l0,0c13.8,9.6,27.5,18.9,41.3,28.2v0c3.3,2.3,6.5,4.4,9.5,6.4
				c31.2,20.9,62.6,41.3,94.8,62.3c38.2,24.8,76.9,50,117.3,77.3c4.2,2.9,8.7,5.9,13.6,9.2l0,0c24.7,16.7,50,34.3,76.3,53v-1.9
				c-30.7-21.8-60.1-42.1-88.7-61.3c-33.7-23.2-46.2-35.2-57.3-45.8c-10.4-10-19.3-18.6-42.8-33.9c-24.5-16-40.5-23.1-56.1-29.9
				c-15.5-6.8-31.4-13.9-55.9-29.9c-17-11.4-34-22.9-51-34.7c-25.2-18-37.5-29.5-49.4-40.6c-10.6-9.9-20.6-19.3-38.8-32.4
				c-12.9-9.2-23.7-16.3-34.2-23.1c-14.5-9.4-27.7-17.9-42.5-30c-6.8-5.9-13.2-11.5-19.1-16.9c-0.3-0.3-0.7-0.6-1-0.9l0,0
				c-32.6-29.5-53.5-52.1-71.9-72C538,500.1,524,485,505.6,469.6c-3.9-3.3-8.1-6.6-12.5-10c-31.6-24-61.8-46-90.8-66.6l0,0
				c-30.7-21.8-60.1-42.1-88.7-61.3c-33.7-23.2-46.2-35.2-57.3-45.8c-10.4-10-19.3-18.6-42.8-33.9c-24.5-16-40.6-23.1-56.1-29.9
				c-15.5-6.8-31.4-13.9-55.9-29.9c-17-11.4-34-22.9-51-34.7c-25.2-18-37.5-29.5-49.4-40.6C-9.4,107-19.4,97.7-37.6,84.6
				c-12.9-9.2-23.7-16.3-34.2-23.1c-14.5-9.4-27.7-17.9-42.5-30c-6.8-5.9-13.2-11.5-19.1-16.9c-0.3-0.3-0.7-0.6-1-0.9l0,0
				c-32.6-29.5-53.5-52.1-71.9-72c-16.9-18.3-30.8-33.4-49.2-48.7h-2.4c18.9,15.6,33,30.9,50.2,49.5
				C-189.3-37.4-168.1-14.5-134.9,15.5"/>
			<path class="st29" d="M685.3,469.6c3.3,2.6,6.6,5.3,9.9,8c17.2,13.8,35,28.1,53.7,44c21,17.9,37.6,35.1,53.6,51.8
				c13.7,14.2,26.9,27.9,42.1,41.4c-4-3-8-6-12-9C749.8,543,707.6,502,676.9,469.6c-6.6-6.9-12.6-13.5-18.4-19.7
				c-3.3-3.6-6.5-7.1-9.7-10.4C660.1,449.2,672.3,459.1,685.3,469.6 M107.6,57.8c2.8,2.1,5.6,4.1,8.6,6.2l0,0
				c60.6,43.6,120.3,82.5,182.7,123.1c33.8,22,68,44.3,103.5,68v0c59.6,39.8,122.7,83.7,193.1,137.1c9.4,7.1,17.5,14,25.1,21l0,0
				c4.2,4.3,8.5,8.5,13.1,12.7c7.6,7.8,15.1,15.9,23.3,24.7c5.6,6,11.4,12.3,17.6,18.9c30.8,32.5,73.1,73.7,156.6,137
				c12.6,9.5,25.1,18.8,37.5,27.8c2.8,2.1,5.6,4.1,8.6,6.2l0,0c60.6,43.6,120.3,82.5,182.7,123.1c33.8,22,68,44.3,103.5,68V830
				c-35.1-23.4-68.9-45.5-102.3-67.2c-65.4-42.6-127.7-83.2-191.2-129.3c-26.5-19.7-45.8-39.8-66.1-60.9
				c-16.1-16.7-32.7-34-53.7-51.9c-18.7-15.9-36.5-30.2-53.7-44c-3-2.4-5.9-4.7-8.8-7h0c-19.6-15.8-37.2-30.2-52.7-44.5
				c-11.5-11.7-23.3-22.5-38.4-33.9c-71-53.8-134.5-97.9-194.4-137.9c-35.1-23.4-68.9-45.5-102.3-67.2
				c-65.4-42.6-127.7-83.2-191.2-129.3C82.4,37.1,63.1,17,42.7-4.1C26.6-20.8,10-38.1-11-56c-18.7-15.9-36.5-30.2-53.7-44
				c-3-2.4-5.9-4.7-8.8-7h-2.5c3.3,2.6,6.6,5.3,9.9,8c17.2,13.8,35,28.1,53.7,44C8.6-37.3,25.2-20,41.3-3.3
				C54.9,10.8,68.1,24.6,83.3,38c-4-3-8-6-12-9C-11.4-33.7-53.7-74.7-84.4-107.1h-2.2C-55.8-74.6-13.5-33.3,70,29.9
				C82.6,39.5,95.1,48.7,107.6,57.8"/>
			<path class="st29" d="M343.8-73.9c12.7,10.3,23.3,17.2,35.6,25.2c6.9,4.5,14.4,9.4,23,15.4c4.5,3.1,9.3,6.6,14.5,10.4
				c22.7,16.8,30.3,26.8,37.5,36.4c3.2,4.3,6.4,8.4,10.8,13c-2.1-1.6-4.2-3.2-6.3-4.8c-21.3-16.2-40-30.9-56.4-44.4v0
				c-8.6-7-16.5-13.7-24-20.2l0,0c-2.5-2.3-4.9-4.3-7.1-6.1C361.2-57.9,352.1-66.1,343.8-73.9 M1044.5,443.3
				c7.6,8.2,15.6,16.9,24.7,26.3c13.3,13.8,29,29.3,48.9,47.3c-4.3-2.8-8.1-4.9-11.8-7.1c-10.6-6-20.6-11.7-40-31.2
				c-3.1-3.1-5.9-6.1-8.5-9.1c-11.6-13-18.9-24.4-25.5-34.6c-3.6-5.7-7.1-11-10.9-16.3C1029,426.5,1036.4,434.5,1044.5,443.3
				 M344-65.8c7.4,4.2,14.9,8.5,26,17.6c9.8,8.5,20.5,17.6,32.4,27.4c16.1,13.2,34.4,27.6,55.2,43.3c7.6,5.7,15.1,11.4,22.6,16.9
				c0,0,0.1,0,0.1,0.1c68.6,50.7,135.6,94.3,206.1,140.1c90.6,59,184.2,119.9,296.7,205.1h0c4.8,3.7,9.4,7.3,13.6,10.9l0,0
				c0,0,0.1,0.1,0.1,0.1c4.4,3.7,8.5,7.4,12.5,11.1c8.9,9.2,14.9,18.4,21.4,28.7c6.5,10.1,13.7,21.3,24.9,34
				c2.8,3.2,5.9,6.5,9.3,9.9c19.6,19.6,29.7,25.4,40.4,31.5c7.3,4.2,14.9,8.5,26,17.6c9.8,8.5,20.5,17.6,32.4,27.4v-2
				c-8.6-7-16.5-13.7-24-20.2l0,0c-2.5-2.2-4.9-4.3-7.1-6.1c-10.1-8.8-19.2-17.1-27.5-24.9c12.7,10.3,23.3,17.2,35.6,25.2
				c6.9,4.5,14.4,9.4,23,15.4v-1.8c-8.1-5.6-15.3-10.3-21.8-14.6c-19.1-12.5-34.3-22.4-59.8-46.6l0,0c-3.7-3.7-7.2-7.3-10.6-10.8
				c-9.4-9.7-17.6-18.6-25.4-27.1c-12.4-13.4-23.2-25.1-35.3-36.4c-3.6-3.7-7.8-7.5-12.6-11.2c-4.3-3.7-8.9-7.3-13.8-11v0
				c-112.5-85.2-206.2-146.2-296.8-205.2C617,132.8,550.1,89.2,481.4,38.6c-13.9-10.4-19.5-17.9-25.5-25.8c-7-9.2-15-19.7-37.8-36.7
				c-5.7-4.2-10.9-7.9-15.7-11.3c-8.1-5.6-15.3-10.3-21.8-14.6c-19.2-12.5-34.3-22.4-59.8-46.6l0,0c-3.7-3.7-7.2-7.3-10.6-10.8h-2.2
				c13.3,13.8,29,29.3,48.9,47.3c-4.3-2.8-8.1-4.9-11.8-7.1c-10.6-6-20.6-11.7-40-31.2c-3.1-3.1-5.9-6.1-8.5-9.1h-2.2
				c2.8,3.2,5.9,6.5,9.3,9.9C323.2-77.6,333.3-71.8,344-65.8"/>
			<path class="st29" d="M119.3,11.3c32.8,35.5,73.7,79.8,174.3,156c36.6,27.8,72.7,53.2,108.8,77.8v0c39.5,26.9,79.2,52.7,120,79.3
				c67.9,44.2,137.5,89.5,215.4,145.3c26.1,18.7,53.1,38.5,81.3,59.8c25,18.9,41.1,36.4,61.5,58.5c32.8,35.5,73.7,79.8,174.3,156
				c36.6,27.8,72.7,53.2,108.8,77.8V820c-35.7-24.3-71.3-49.5-107.5-77c-100.5-76.1-141.3-120.3-174.1-155.8
				c-20.5-22.2-36.7-39.7-61.7-58.7c-27.7-21-54.3-40.5-79.9-58.9c-78.5-56.2-148.5-101.8-216.8-146.3
				c-41.3-26.9-81.3-52.9-121.2-80.1v0c-35.7-24.3-71.3-49.5-107.5-77C194.4,90.2,153.6,46,120.8,10.5C100.3-11.7,84.1-29.2,59-48.2
				c-27.7-21-54.3-40.5-79.9-58.9h-2.6C2.6-88.4,29.6-68.6,57.8-47.2C82.7-28.3,98.9-10.9,119.3,11.3"/>
			<path class="st29" d="M115,164.4c88.1,57.3,179,116.6,287.4,198.1c3.1,2.3,6.2,4.6,9.3,7c25,18.9,41.1,36.4,61.5,58.5
				c11.5,12.5,24,26,39.7,41.6c29.1,28.9,69.2,64.9,134.6,114.4c76.7,58.1,150.6,106.2,228.8,157.1c88.1,57.3,179,116.6,287.4,198.1
				v-1.9c-107.8-81.1-198.5-140.1-286.2-197.2c-78.2-50.9-152.1-99-228.7-157.1c-64.6-49-104.6-84.7-133.6-113.4
				c-16.1-15.9-28.8-29.7-40.5-42.4c-20.5-22.2-36.7-39.7-61.7-58.7c-3.5-2.7-7-5.3-10.5-8v0c-107.8-81.1-198.5-140.1-286.2-197.2
				C38,112.5-35.9,64.4-112.5,6.3c-64.6-49-104.6-84.7-133.6-113.4h-2.3c29.1,28.9,69.2,64.9,134.6,114.4
				C-37.1,65.4,36.8,113.5,115,164.4"/>
			<path class="st29" d="M92.4,94.6c18,12.8,36.6,26.1,58.2,43.2c21.8,17.3,36.3,29.3,47.8,39c9.5,7.9,17.5,14.6,26.8,21.9
				c-26.3-18.3-52.7-37.3-79.3-57.6c-38.5-29.2-68.3-53.7-92.2-74.8C66.2,75.9,78.9,85,92.4,94.6 M853.7,671.3
				c18,12.8,36.6,26.1,58.2,43.1c21.8,17.3,36.3,29.3,47.8,39c9.5,7.9,17.5,14.6,26.8,21.9c-26.3-18.3-52.7-37.3-79.3-57.6
				c-38.5-29.2-68.3-53.7-92.2-74.8C827.5,652.6,840.2,661.7,853.7,671.3 M-29.6-14C-19.6-3.1-8.8,8.6,4.2,21.7
				c7.7,8.1,15.2,15.4,22.7,22.2c27.5,26,64.2,57.5,117.8,98.1c42.2,32,83.6,60.9,125.3,89c0,0,0.1,0.1,0.1,0.1v0
				c34,22.9,68.3,45.2,103.4,68c9.6,6.2,19.2,12.5,28.9,18.8c68.8,44.9,140.4,92.3,221.3,151.6c15.2,11.1,30.6,22.6,46.5,34.6
				c25,18.9,41.1,36.4,61.5,58.5c10,10.9,20.8,22.5,33.8,35.6c7.7,8.1,15.2,15.4,22.7,22.2c27.5,26,64.2,57.5,117.8,98.1
				c42.2,32,83.6,60.9,125.3,89c0,0,0.1,0.1,0.1,0.1c34,22.9,68.3,45.2,103.4,68c9.6,6.2,19.2,12.5,28.9,18.8v-1.8
				c-9.3-6.1-18.5-12.1-27.7-18.1c-35.1-22.9-69.4-45.2-103.4-68.1c-36.6-25.1-50.5-36.7-71.4-54.2c-11.6-9.7-26-21.7-47.9-39
				c-21.6-17.1-40.2-30.4-58.2-43.2c-23.3-16.6-44.3-31.6-65.4-50.6c-8.3-7.9-15.8-15.2-22.7-22.2c-0.2-0.2-0.4-0.4-0.5-0.6l0,0
				c-12.7-12.9-23.3-24.4-33.2-35c-20.5-22.2-36.7-39.7-61.7-58.7c-15.4-11.7-30.4-22.9-45.2-33.7h0c-82-60.2-154.3-108-223.9-153.4
				c-9.3-6.1-18.5-12.1-27.7-18.1c-35.1-22.9-69.4-45.2-103.4-68.1c-36.6-25.1-50.5-36.7-71.4-54.2c-11.6-9.7-26-21.7-47.9-39
				c-21.6-17.1-40.2-30.4-58.2-43.2C70.3,77,49.3,62,28.3,43C20,35.2,12.5,27.8,5.6,20.9c-0.2-0.2-0.4-0.4-0.5-0.6l0,0
				C-7.7,7.4-18.3-4-28.1-14.7c-20.5-22.2-36.7-39.7-61.7-58.7c-15.4-11.7-30.4-22.9-45.2-33.7h-2.6C-122.5-96-107-84.5-91.2-72.5
				C-66.2-53.5-50.1-36.1-29.6-14"/>
			<path class="st29" d="M427.7,296.8c20.2,10.1,41.1,20.6,64.2,37c20.6,14.7,29.1,23.5,38.2,32.8c4.4,4.5,8.9,9.1,14.8,14.5
				c-49.8-35.6-96.2-67-140.9-96.5C411.8,288.8,419.6,292.7,427.7,296.8 M100,80.1c76.7,58.1,150.6,106.2,228.8,157.1
				c24.2,15.8,48.6,31.7,73.6,48.1c51.6,34.1,105.4,70.6,164.1,113.2c1.6,1.2,3.4,2.5,5.2,3.8v0c17.5,12.7,35.4,26,53.8,40
				c12.2,9.2,22.2,18.1,31.7,27.3c10,9.7,19.4,19.9,29.8,31.2c32.8,35.5,73.7,79.8,174.3,156c76.7,58.1,150.6,106.2,228.8,157.1
				c24.2,15.8,48.6,31.7,73.6,48.1v-3.3c-7.7-4.2-15.4-8.7-23.4-13.9c-16.5-10.8-32.8-21.4-49-32c-78.2-50.9-152.1-99-228.7-157.1
				C762,579.7,721.2,535.6,688.4,500.1c-10.2-11-19.3-20.9-29-30.4c-9.8-9.6-20.1-18.7-32.7-28.3c-20.2-15.3-39.9-29.9-59-43.8
				c-19.1-14.2-27.8-23.1-36.2-31.8c-9.1-9.4-17.7-18.3-38.4-33c-23.2-16.5-44.2-27-64.4-37.2c-8.9-4.5-17.6-8.8-26.3-13.6
				c-7.7-4.2-15.4-8.7-23.4-13.9c-16.5-10.8-32.8-21.4-49-32c-78.2-50.9-152.1-99-228.7-157.1C0.8,3-40.1-41.2-72.8-76.7
				c-10.2-11-19.3-20.9-29-30.4h-2.3c10,9.7,19.4,19.8,29.8,31.2C-41.5-40.4-0.6,3.9,100,80.1"/>
			<path class="st29" d="M2.7,72.6c76.7,58.1,150.6,106.2,228.8,157.1c54.7,35.6,110.5,71.9,170.9,113.9v0
				c39.6,27.5,81.2,57.5,125.8,91.2c15.4,11.7,27.4,22.8,39.2,34.8c7.3,7.5,14.5,15.3,22.4,23.7c32.8,35.5,73.7,79.8,174.3,156
				c76.7,58.1,150.6,106.2,228.8,157.1c54.7,35.6,110.5,71.9,170.9,113.9v-1.8c-59.9-41.6-115.4-77.7-169.7-113.1
				c-78.2-50.9-152.1-99-228.7-157.1C664.8,572.3,624,528.1,591.2,492.6c-7.6-8.2-14.5-15.7-21.6-23c-12-12.3-24.3-23.7-40.1-35.7
				c-45-34.1-87-64.3-127-92.1c-59.9-41.6-115.4-77.7-169.7-113.1C154.5,177.8,80.6,129.7,4,71.7C-96.5-4.5-137.3-48.6-170.1-84.1
				c-7.6-8.2-14.5-15.7-21.6-23h-2.2c7.3,7.5,14.5,15.3,22.4,23.7C-138.8-47.8-97.9-3.6,2.7,72.6"/>
			<path class="st29" d="M70,103.9c76.7,58.1,150.6,106.2,228.8,157.1c33.8,22,68,44.3,103.5,68c59.6,39.8,122.7,83.7,193.1,137.1
				c1.5,1.2,3,2.3,4.5,3.4h0c22.5,17.6,37.9,34.3,57.1,55.1c32.8,35.5,73.7,79.8,174.3,156c76.7,58.1,150.6,106.2,228.8,157.1
				c33.8,22,68,44.3,103.5,68V904c-35.1-23.4-68.9-45.5-102.3-67.2c-78.2-50.9-152.1-99-228.7-157.1
				c-100.5-76.1-141.3-120.3-174.1-155.8c-18.9-20.5-34.1-36.9-56-54.3c-1.9-1.5-3.7-2.9-5.7-4.4c-71-53.8-134.5-97.9-194.4-137.9
				c-35.1-23.4-68.9-45.5-102.3-67.2C221.8,209.1,147.9,161,71.3,103C-29.2,26.9-70-17.3-102.8-52.8c-18.9-20.5-34.1-36.9-56-54.3
				h-2.5c22.5,17.6,37.9,34.3,57.1,55.1C-71.4-16.5-30.5,27.7,70,103.9"/>
			<path class="st29" d="M-171.6-4.7c32.8,35.5,73.7,79.8,174.3,156c76.7,58.1,150.6,106.2,228.8,157.1
				C286.2,344,342,380.4,402.4,422.3v0c21.6,15,43.7,30.7,66.6,47.3c19.2,13.9,38.9,28.5,59.2,43.9c25,18.9,41.1,36.4,61.5,58.5
				c32.8,35.5,73.7,79.8,174.3,156c76.7,58.1,150.6,106.2,228.8,157.1c54.7,35.6,110.5,71.9,170.9,113.9v-1.8
				c-59.9-41.6-115.4-77.7-169.7-113.1c-78.2-50.9-152.1-99-228.7-157.1C664.8,650.9,624,606.8,591.2,571.3
				c-20.5-22.2-36.7-39.7-61.7-58.7c-19.8-15-39.1-29.3-57.9-42.9c-23.8-17.3-46.8-33.6-69.2-49.2
				c-59.9-41.6-115.4-77.7-169.7-113.1c-78.2-50.9-152.1-99-228.7-157.1C-96.5,74.2-137.3,30-170.1-5.5
				c-20.5-22.2-36.7-39.7-61.7-58.7c-19.8-15-39.1-29.3-57.8-42.9h-2.6c19.2,13.9,38.9,28.5,59.2,43.9
				C-208.2-44.3-192-26.8-171.6-4.7"/>
			<path class="st29" d="M165.1,29.5c32.8,35.5,73.7,79.8,174.3,156c21.1,16,42.1,31.3,63,46v0c54.8,38.8,109.2,74.2,165.9,111.1
				c60.3,39.3,122,79.5,189.7,127.1c33.9,23.9,69.4,49.6,106.9,78c25,18.9,41.1,36.4,61.5,58.5c32.8,35.5,73.7,79.8,174.3,156
				c21.2,16,42.1,31.3,63,46v-1.9c-20.5-14.5-41-29.5-61.7-45.1c-100.5-76.1-141.3-120.3-174.1-155.8
				c-20.5-22.2-36.7-39.7-61.7-58.7c-37-28.1-72-53.5-105.6-77.1c-68.3-48.1-130.4-88.5-191.2-128.1
				c-57.1-37.2-111.8-72.8-167-111.9l0,0c-20.5-14.5-41-29.5-61.7-45.2C240.2,108.4,199.4,64.2,166.6,28.7
				C146.1,6.5,129.9-11,104.9-30c-37-28.1-72-53.5-105.6-77.1h-2.6c33.9,23.9,69.4,49.6,106.9,78C128.6-10.1,144.7,7.3,165.1,29.5"
				/>
			<path class="st29" d="M402.4,180.3L402.4,180.3c11.5,8.3,25.3,17.5,45.8,30.8c30.6,19.8,46.5,35.3,61.8,50.3
				c6.7,6.5,13.5,13.2,21.5,20.2c-16.9-12.1-33.9-24.6-51-37.5c-31.3-23.7-56.9-44.4-78.2-62.6v0c-3.4-2.9-6.7-5.8-9.9-8.6
				C395.7,175.3,398.9,177.8,402.4,180.3 M517.2,253.5c12.8,5.9,26,12.1,61.7,36.9c36,25.1,46.7,33.9,61.4,46.2
				c9.8,8.1,21.4,17.8,43.8,34.8c-25.8-16.2-48.1-27.7-68.6-38.3c-20.4-10.5-38.3-19.7-55.5-31.5c-1.5-1.1-3.1-2.2-4.6-3.2
				c-19.5-13.9-31.4-25.6-44-37.9c-8.1-7.9-16.3-16-26.8-24.7C499.9,245.4,508.4,249.3,517.2,253.5 M722.4,399.3
				c36.1,26.5,51.7,39.6,64.2,50.1c4.8,4,9,7.6,13.8,11.4c-31.1-20.7-61.3-40.3-91.1-59.8c-42.8-27.9-84.4-54.9-125.8-83.2
				c9.8,5.5,20.1,10.8,31,16.4C644.7,349.8,678.9,367.4,722.4,399.3 M78.3-87.8L78.3-87.8c51.4,34.8,105.6,73.1,165.2,118.2
				c25,18.9,41.1,36.4,61.5,58.5c22.8,24.7,49.5,53.6,97.4,94.4v0c21.1,18,46.2,38.3,76.9,61.5c25.2,19.1,50,37.1,74.9,54.4
				c0.1,0,0.1,0.1,0.2,0.1c1.5,1.1,3,2.1,4.4,3.1c49.2,34.3,98.4,66.3,149.3,99.5c33.6,21.9,67.6,44,102.8,67.5
				c5.9,3.9,11.8,7.9,17.8,11.9c3.3,2.3,7,4.8,11,7.4l0,0c51.3,34.8,105.6,73.1,165.2,118.3c25,18.9,41.1,36.4,61.5,58.5
				c22.8,24.7,49.5,53.6,97.4,94.4v-2c-3.4-2.9-6.7-5.8-9.9-8.6c3.2,2.5,6.4,4.9,9.9,7.4v-1.9c-18.4-13.5-31.1-25.2-57.6-50l0,0
				c-15.1-15-27.1-28.1-38.3-40.2c-20.5-22.2-36.7-39.7-61.7-58.7c-63.8-48.4-121.6-88.9-176.2-125.7c-6-4.1-11-7.7-15.4-10.9
				c-11-8.1-18-14-26.5-21.1c-12.5-10.5-28.1-23.6-64.2-50.2c-7.1-5.2-13.9-10-20.5-14.5c-34.5-25.8-49.4-38.2-61.5-48.2
				c-14.8-12.3-25.5-21.2-61.5-46.3c-35.8-24.9-49.1-31.1-61.9-37.1c-11.2-5.2-21.8-10.1-46.4-26.7l0,0
				c-6.5-4.9-13.9-10.1-22.4-15.6c-21.3-13.8-35.3-23-47-31.6c-18.4-13.5-31.1-25.2-57.6-50l0,0c-15.1-15-27.1-28.1-38.3-40.2
				C286,66,269.8,48.5,244.7,29.5C180.9-18.8,123.1-59.4,68.6-96.2c-6-4.1-11-7.7-15.4-10.9h-3.5c5.9,3.9,11.8,7.9,17.8,11.9
				C70.7-92.9,74.3-90.4,78.3-87.8"/>
			<path class="st29" d="M402.4,113.9L402.4,113.9c25.4,16.9,51.1,33.6,77.2,50.6c90.6,59,184.2,119.9,296.7,205.1
				c25,18.9,41.1,36.4,61.5,58.5c11.5,12.5,24,26,39.7,41.6c29.1,28.9,69.2,64.9,134.6,114.4c51.1,38.7,100.9,73,151.6,106.6v-1.8
				c-50.3-33.4-99.7-67.4-150.4-105.7c-64.6-49-104.6-84.7-133.6-113.4c-16.1-15.9-28.8-29.7-40.5-42.4
				c-20.5-22.2-36.7-39.7-61.7-58.7C665,283.4,571.3,222.4,480.7,163.4c-26.5-17.3-52.5-34.2-78.4-51.3v0
				C352.1,78.7,302.7,44.7,252,6.3c-64.6-49-104.6-84.7-133.6-113.4h-2.3c29.1,28.9,69.2,64.9,134.6,114.4
				C301.8,46,351.7,80.3,402.4,113.9"/>
			<path class="st29" d="M402.4,76.1L402.4,76.1c32.6,21.9,65.5,43.3,99.1,65.2c90.6,59,184.2,119.9,296.7,205.1
				c25,18.9,41.1,36.4,61.5,58.5c16.8,18.2,35.8,38.8,63.9,64.7c26.6,24.6,61.4,54.2,110.4,91.3c43.7,33.1,86.5,63,129.7,92v-1.8
				c-42.8-28.7-85.2-58.3-128.4-91.1c-48.4-36.6-82.9-65.9-109.4-90.3c-28.5-26.3-47.7-47.1-64.7-65.5
				c-20.5-22.2-36.7-39.7-61.7-58.7c-112.5-85.2-206.2-146.2-296.8-205.2c-34.1-22.2-67.3-43.8-100.3-66v0
				C359.6,45.6,317.2,16,273.9-16.8c-48.4-36.6-82.9-65.9-109.4-90.3h-2.3c26.6,24.6,61.4,54.2,110.4,91.3
				C316.4,17.3,359.2,47.1,402.4,76.1"/>
			<path class="st29" d="M402.4,100.9L402.4,100.9c46.3,32,92.6,62.2,140.5,93.4c90.6,59,184.2,119.9,296.7,205.1
				c25,18.9,41.1,36.4,61.5,58.5c3.5,3.8,7.2,7.7,10.9,11.8h0c31.4,33.6,73.6,76.2,163.3,144.2c29.7,22.5,59,43.5,88.3,63.8v-1.8
				c-28.9-20-57.8-40.7-87-62.9c-89-67.4-131.1-109.8-162.4-143.2c-4-4.3-7.9-8.5-11.7-12.6c-20.5-22.2-36.7-39.7-61.7-58.7
				c-112.5-85.2-206.2-146.2-296.8-205.2c-48.3-31.5-95-61.8-141.7-94.2v0c-28.9-20-57.8-40.7-87-62.9
				c-89-67.4-131.1-109.8-162.4-143.2h-2.2c31.4,33.6,73.6,76.2,163.3,144.2C343.8,59.6,373.1,80.6,402.4,100.9"/>
			<path class="st29" d="M402.4,55.1L402.4,55.1c23.1,15.2,46.3,30.4,70,45.8c90.6,59,184.2,119.9,296.7,205.1
				c25,18.9,41.1,36.4,61.5,58.5c24.7,26.8,54.1,58.5,110.1,105.1c18.3,15.2,39.4,32.1,64.2,50.8c53.5,40.5,105.7,76.2,158.9,111.4
				v-1.8c-52.8-34.9-104.5-70.3-157.6-110.5c-24.3-18.4-45-34.9-63.1-49.9c-56.6-47.1-86.1-79-111-105.9
				c-20.5-22.2-36.7-39.7-61.7-58.7C657.8,219.8,564.1,158.8,473.5,99.9c-24-15.7-47.7-31-71.1-46.5C349.6,18.4,297.8-17,244.8-57.2
				c-24.3-18.4-45-34.9-63.1-49.9h-2.4c18.3,15.2,39.4,32.1,64.2,50.8C297-15.7,349.2,19.9,402.4,55.1"/>
			<path class="st29" d="M243.8,65.8c31.1,33.6,69.3,75.1,158.6,144v0c5.1,3.9,10.3,7.9,15.6,12C494.7,279.9,568.6,328,646.8,379
				c44.3,28.9,89.4,58.2,137.1,90.7c49.7,33.8,102.2,71,159.5,114.4c25,18.9,41.1,36.4,61.5,58.5c31.1,33.6,69.3,75.1,158.6,144
				v-1.9c-88.3-68.3-126.3-109.4-157.2-142.8c-20.5-22.2-36.7-39.7-61.7-58.7c-56.8-43.1-108.9-79.9-158.1-113.5
				c-48.2-32.9-93.8-62.5-138.6-91.7c-78.2-50.9-152.1-99-228.7-157.1c-5.8-4.4-11.5-8.7-16.9-12.9v0
				C314.1,139.6,276.1,98.5,245.2,65.1c-20.5-22.2-36.7-39.7-61.7-58.7C126.6-36.7,74.6-73.5,25.4-107.1h-2.7
				c49.7,33.8,102.2,71,159.5,114.4C207.2,26.2,223.3,43.7,243.8,65.8"/>
			<path class="st29" d="M858.7,314.7c14.7,8.1,27.3,15,54.9,37.4c27.6,22.4,41.2,37.9,54.4,53c11.3,12.9,21.9,25,40.4,40.6
				c12.6,10.6,18.6,17.7,22.7,24h0c1.8,2.8,3.3,5.4,4.7,8c4,7.2,8,14.5,20.2,26.2c-15.8-12.2-29.9-23.6-42.6-34.2
				c-56.6-47.1-86.1-79-111-105.9c-20.5-22.2-36.7-39.7-61.7-58.7c-1.5-1.1-3-2.2-4.4-3.4C845.3,307.2,852.2,311.1,858.7,314.7
				 M316.7-54.3C316.8-54.2,316.8-54.2,316.7-54.3L316.7-54.3c28.8,21.8,57.2,42.1,85.6,61.8v0c46.3,32,92.6,62.2,140.5,93.4
				c82,53.4,166.5,108.4,265.1,181.5l0,0c0.1,0,0.1,0.1,0.2,0.1c10.3,7.6,20.7,15.5,31.4,23.5c25,18.9,41.1,36.4,61.5,58.5
				c24.7,26.8,54.1,58.5,110.1,105.1c18.3,15.2,39.4,32.1,64.2,50.8c0.9,0.7,1.8,1.3,2.7,2c0,0,0,0,0.1,0
				c28.8,21.7,57.2,42.1,85.6,61.7v-1.8c-28-19.4-56-39.5-84.4-60.9c-30.2-23.6-36-34.2-41.7-44.4c-1.4-2.5-2.7-4.9-4.4-7.5
				c-4.2-6.5-10.2-13.8-23.4-24.9c-18.4-15.5-29-27.6-40.3-40.4c-13.2-15.1-26.9-30.7-54.6-53.2c-27.7-22.4-40.4-29.4-55.2-37.6
				c-12.1-6.6-25.8-14.2-50.4-32.1c-98.7-73.2-183.3-128.2-265.3-181.6c-48.3-31.5-95-61.8-141.7-94.2v0c-28-19.4-56-39.5-84.4-60.9
				c-30.2-23.6-36-34.2-41.7-44.4c-1.4-2.5-2.7-4.9-4.4-7.5h-2c1.8,2.8,3.3,5.4,4.7,8c4,7.2,8,14.5,20.2,26.2
				c-15.8-12.2-29.9-23.6-42.6-34.2h-2.4c18.3,15.2,39.4,32.1,64.2,50.8C315-55.6,315.8-54.9,316.7-54.3"/>
			<path class="st29" d="M722.4,346.4c16.6,12.6,29.3,24.6,42,37.7c-12.5-10.4-21.6-15.2-33.8-21.6c-16.5-8.7-39.2-20.6-84.3-54.1
				c-38.9-28.9-59.9-47.8-78.4-64.5c-15.6-14.1-29.9-26.9-52.2-43.6C579.3,242.6,646.6,289,722.4,346.4 M402.4,126.1L402.4,126.1
				c7.8,5.1,15.5,10.1,23.4,15.2c12.2,8,24.6,16,37,24.1h0c57.1,37.3,78.8,56.8,103.9,79.4c18.5,16.7,39.5,35.6,78.6,64.6
				c45.2,33.5,67.9,45.5,84.5,54.2c16.5,8.7,27.4,14.4,49.1,35.7c1.7,1.9,3.5,3.7,5.2,5.7c16.8,18.2,35.8,38.8,63.9,64.7
				c26.6,24.6,61.4,54.2,110.4,91.3c69,52.3,135.8,96.5,205.5,141.9V701c-69.2-45.2-135.6-89.1-204.2-141.1
				c-48.4-36.6-82.9-65.9-109.4-90.3c-28.5-26.3-47.7-47.1-64.7-65.5c-20.5-22.2-36.7-39.7-61.7-58.7
				c-112.5-85.2-206.2-146.2-296.8-205.2c-8.2-5.4-16.4-10.7-24.5-16v0C333.1,79.1,266.8,35.2,198.2-16.8
				c-48.4-36.6-82.9-65.9-109.4-90.3h-2.3c26.6,24.6,61.4,54.2,110.4,91.3C265.9,36.4,332.7,80.6,402.4,126.1"/>
			<path class="st29" d="M-150.4,29.5c32.8,35.5,73.7,79.8,174.3,156c76.7,58.1,150.6,106.2,228.8,157.1
				C300.9,374,350,406,402.4,441.8c13.1,9,26.5,18.3,40,27.8c33.9,23.9,69.4,49.6,106.9,78c25,18.9,41.1,36.4,61.5,58.5
				c32.8,35.5,73.7,79.8,174.3,156c76.7,58.1,150.6,106.2,228.8,157.1c48.2,31.4,97.3,63.4,149.7,99.3v-1.8
				c-51.9-35.6-100.7-67.3-148.5-98.5c-78.2-50.9-152.1-99-228.7-157.1c-100.5-76.1-141.3-120.3-174.1-155.8
				c-20.5-22.2-36.7-39.7-61.7-58.7c-37-28.1-72-53.5-105.6-77.1c-14.5-10.2-28.7-20-42.7-29.6c-51.9-35.6-100.7-67.3-148.5-98.5
				c-78.2-50.9-152.1-99-228.7-157.1C-75.4,108.4-116.2,64.2-149,28.7C-169.4,6.5-185.6-11-210.7-30c-37-28.1-72-53.5-105.6-77.1
				h-2.6c33.9,23.9,69.4,49.6,106.9,78C-187-10.1-170.9,7.3-150.4,29.5"/>
			<path class="st29" d="M799.4,922.2C686.9,837,593.3,776,502.7,717c-34.1-22.2-67.3-43.8-100.3-66v0
				c-42.8-28.7-85.2-58.3-128.4-91.1c-48.4-36.6-82.9-65.9-109.4-90.3c-28.5-26.3-47.7-47.1-64.7-65.5
				c-20.5-22.2-36.7-39.7-61.7-58.7C-74.3,260.3-168,199.3-258.6,140.3c-34.1-22.2-67.3-43.8-100.3-66v1.8
				c32.6,21.9,65.5,43.3,99.1,65.2c90.6,59,184.2,119.9,296.7,205.1c25,18.9,41.1,36.4,61.5,58.5c16.8,18.2,35.8,38.8,63.9,64.7
				c26.6,24.6,61.4,54.2,110.4,91.3c43.7,33.1,86.5,63,129.7,92v0c32.6,21.9,65.5,43.3,99.1,65.2c90.6,59,184.2,119.9,296.7,205.1
				c25,18.9,41.1,36.4,61.5,58.5c16.8,18.2,35.8,38.8,63.9,64.7h2.3c-28.5-26.3-47.7-47.1-64.7-65.5
				C840.7,958.7,824.5,941.2,799.4,922.2"/>
			<path class="st29" d="M840.8,975.1c-112.5-85.2-206.2-146.2-296.8-205.2c-48.3-31.5-95-61.8-141.7-94.2v0
				c-28.9-20-57.8-40.7-87-62.9c-89-67.4-131.1-109.7-162.4-143.2c-4-4.3-7.9-8.5-11.7-12.6c-20.5-22.2-36.7-39.7-61.7-58.7
				C-33,313.2-126.6,252.2-217.2,193.2c-48.3-31.5-95-61.8-141.7-94.2v1.8c46.3,32,92.6,62.2,140.5,93.4
				c90.6,59,184.2,119.9,296.7,205.1c25,18.9,41.1,36.4,61.5,58.5c3.5,3.8,7.2,7.7,10.9,11.8c31.4,33.6,73.6,76.2,163.3,144.2
				c29.7,22.5,59,43.5,88.3,63.8c46.3,32,92.6,62.2,140.5,93.4c90.6,59,184.2,119.9,296.7,205.1c25,18.9,41.1,36.4,61.5,58.5
				c3.5,3.8,7.2,7.7,10.9,11.8h2.2c-4-4.3-7.9-8.5-11.7-12.6C882.1,1011.6,865.9,994.1,840.8,975.1"/>
			<path class="st29" d="M824.8,913.3c-17-18.4-31-33.6-49.6-49c3.3,2,6.1,3.7,8.9,5.3c9.9,5.7,19.3,11.2,46.3,32.8
				c22.7,18.2,37.1,37,52.4,56.9c12.8,16.7,26.9,35.1,47.8,55.6C877.3,970.2,848.9,939.4,824.8,913.3 M505.7,675.2
				c8.5,4.7,15.7,8.4,22.8,12c13.7,7,26.6,13.6,47.7,27.4c21.9,14.3,31.9,23.2,43.4,33.4c5.6,5,11.5,10.2,19.2,16.5
				C592.3,732.1,548.4,703.1,505.7,675.2 M63.5,336.6c-17-18.4-31-33.6-49.6-49c3.3,2,6.1,3.7,8.9,5.3c9.9,5.7,19.3,11.2,46.3,32.8
				c22.7,18.2,37.1,37,52.4,56.9c12.8,16.7,26.9,35.1,47.8,55.6C116,393.4,87.6,362.7,63.5,336.6 M-255.5,98.4
				c8.5,4.7,15.7,8.4,22.8,12c13.7,7,26.6,13.6,47.7,27.4c21.9,14.3,31.9,23.2,43.4,33.4c5.6,5,11.5,10.2,19.2,16.5
				C-169,155.4-212.9,126.3-255.5,98.4 M952.6,1033c-32.9-28.3-51.7-52.8-68.3-74.4c-15.3-20-29.8-38.9-52.6-57.1
				c-27.1-21.7-36.5-27.1-46.5-32.9c-7.5-4.3-15.2-8.8-30.9-20.5v0c-30-22.6-58.6-43.4-86.2-63c-24.3-17.7-36.3-28.4-47.2-38
				c-11.6-10.3-21.6-19.2-43.6-33.6c-21.2-13.9-34.2-20.5-47.9-27.5c-15.7-8-31.8-16.2-62.2-35.9c-0.3-0.2-0.7-0.4-1-0.7
				c-21.6-14.1-42.9-27.9-64-41.8c-55.3-36.4-109.3-73.2-164.8-115.3c-10.5-7.9-20.3-15.5-29.5-22.7c-5.8-4.6-11.5-9.1-16.8-13.4
				l0,0c-32.9-28.3-51.7-52.8-68.3-74.4c-15.3-20-29.8-38.9-52.6-57.1c-27.1-21.7-36.5-27.1-46.5-32.9c-7.5-4.3-15.2-8.8-30.9-20.5
				l0,0c-30-22.6-58.6-43.4-86.2-63c-24.3-17.7-36.3-28.4-47.2-38c-11.6-10.3-21.6-19.2-43.6-33.6c-21.2-13.9-34.2-20.5-47.9-27.5
				c-15.6-8-31.8-16.2-62.2-35.9c-0.3-0.2-0.7-0.4-1-0.7c-21.6-14.1-42.9-27.9-63.9-41.8v1.8c20,13.2,40.2,26.3,60.7,39.7
				c1,0.6,1.9,1.3,2.9,1.9c63.6,41.4,128.8,83.9,201,135c4.5,3.3,9.4,6.8,14.8,10.6l0,0c25.7,18.4,52.3,37.9,80,59
				c25,18.9,41.1,36.4,61.5,58.5c29.3,31.7,64.9,70.3,143.6,132.3h0c9.6,7.5,19.8,15.4,30.7,23.7c55.9,42.4,110.3,79.4,166,116.1v0
				c20,13.2,40.2,26.3,60.7,39.7c1,0.6,1.9,1.3,2.9,1.9c63.6,41.4,128.8,83.9,201,135c4.5,3.3,9.4,6.8,14.8,10.6l0,0
				c25.7,18.4,52.3,37.9,80,59c25,18.9,41.1,36.4,61.5,58.5c29.3,31.7,64.9,70.3,143.6,132.3h2.5
				C963.6,1041.8,958,1037.3,952.6,1033L952.6,1033z"/>
			<path class="st29" d="M777.5,945.3C665,860.1,571.3,799.1,480.7,740.1c-26.5-17.3-52.5-34.2-78.4-51.3v0
				c-50.3-33.4-99.7-67.4-150.4-105.7c-64.6-49-104.6-84.7-133.6-113.4c-16.1-15.9-28.8-29.7-40.5-42.4
				c-20.5-22.2-36.7-39.7-61.7-58.7C-96.3,283.4-190,222.4-280.6,163.4c-26.5-17.3-52.6-34.2-78.4-51.3v1.8
				c25.4,16.9,51.1,33.5,77.2,50.6c90.6,59,184.2,119.9,296.7,205.1c25,18.9,41.1,36.4,61.5,58.5c11.5,12.5,24,26,39.7,41.6
				c29.1,28.9,69.2,64.9,134.6,114.4c51.1,38.7,100.9,73,151.6,106.6v0c25.4,16.9,51.1,33.6,77.2,50.6
				c90.6,59,184.2,119.9,296.7,205.1c25,18.9,41.1,36.4,61.5,58.5c11.5,12.5,24,26,39.7,41.6h2.3c-16.1-15.9-28.8-29.7-40.5-42.4
				C818.7,981.8,802.6,964.3,777.5,945.3"/>
			<path class="st29" d="M730.6,939.2c-16.5-8.7-39.2-20.6-84.3-54.1c-38.9-28.9-59.9-47.8-78.4-64.5
				c-15.6-14.1-29.9-26.9-52.2-43.6c63.6,42.2,130.8,88.7,206.7,146.1c16.6,12.6,29.3,24.5,42,37.7
				C751.9,950.4,742.8,945.6,730.6,939.2 M-30.7,362.5c-16.5-8.7-39.2-20.6-84.3-54.1c-38.9-28.9-59.9-47.8-78.4-64.5
				c-15.6-14.1-29.9-26.9-52.2-43.6C-182,242.6-114.7,289-38.9,346.4c16.6,12.6,29.3,24.6,42,37.7C-9.4,373.7-18.5,368.9-30.7,362.5
				 M723.7,922.2C611.2,837,517.5,776,426.9,717c-8.2-5.4-16.4-10.7-24.5-16c-69.2-45.2-135.6-89.1-204.2-141.1
				c-48.4-36.6-82.9-65.9-109.4-90.3h0c-28.5-26.3-47.7-47.1-64.7-65.5C3.6,382-12.6,364.5-37.6,345.5
				c-112.5-85.2-206.2-146.2-296.8-205.2c-8.2-5.4-16.4-10.7-24.5-16v1.8c7.7,5.1,15.5,10.1,23.4,15.2c12.2,8,24.6,16,37,24.1
				c57.1,37.3,78.8,56.8,103.9,79.4c18.5,16.7,39.5,35.6,78.5,64.6c45.2,33.5,67.9,45.5,84.5,54.2c16.5,8.7,27.4,14.4,49.1,35.7
				c1.7,1.9,3.5,3.7,5.2,5.7c16.8,18.2,35.8,38.8,63.9,64.7c26.6,24.6,61.4,54.2,110.4,91.3c69,52.3,135.8,96.5,205.4,141.9v0
				c7.8,5.1,15.5,10.1,23.4,15.2c12.2,8,24.6,16,37,24.1h0c57.1,37.3,78.8,56.8,103.9,79.4c18.5,16.7,39.5,35.6,78.5,64.6
				c45.2,33.5,67.9,45.5,84.5,54.2c16.5,8.7,27.4,14.4,49.1,35.7c1.7,1.9,3.5,3.7,5.2,5.7c16.8,18.2,35.8,38.8,63.9,64.7h2.3
				c-28.5-26.3-47.7-47.1-64.7-65.5C764.9,958.7,748.7,941.2,723.7,922.2"/>
			<path class="st29" d="M770.3,881.8c-112.5-85.2-206.2-146.2-296.8-205.2c-24-15.7-47.7-31-71.1-46.5
				c-52.8-34.9-104.5-70.3-157.6-110.5c-24.3-18.4-45-34.9-63.1-49.9c-56.6-47.1-86.1-79-111-105.9C50.2,341.5,34,324,9,305
				c-112.5-85.2-206.2-146.2-296.8-205.2c-24-15.7-47.7-31-71.1-46.5v1.8c23.1,15.2,46.3,30.4,69.9,45.8
				c90.6,59,184.2,119.9,296.7,205.1c25,18.9,41.1,36.4,61.5,58.5C94,391.3,123.3,423,179.3,469.6c18.3,15.2,39.5,32.1,64.2,50.8
				C297,561,349.2,596.7,402.4,631.8c23.1,15.2,46.3,30.4,70,45.8c90.6,59,184.2,119.9,296.7,205.1c25,18.9,41.1,36.4,61.5,58.5
				c24.7,26.8,54.1,58.5,110.1,105.1h2.4c-56.6-47.1-86.1-79-111-105.9C811.5,918.3,795.3,900.8,770.3,881.8"/>
			<path class="st29" d="M648.7,699.3C548.3,623.2,507.5,579,474.7,543.5c-20.5-22.2-36.7-39.7-61.7-58.7c-3.5-2.7-7-5.3-10.5-8v0
				c-3.2-2.4-6.5-4.8-9.7-7.2c-103.6-77.4-191.4-134.6-276.6-190c-78.2-50.9-152.1-99-228.7-157.1C-213,46.5-253.8,2.3-286.6-33.2
				c-20.5-22.2-36.7-39.7-61.7-58.7c-3.5-2.7-7-5.3-10.5-8v1.9c3.1,2.3,6.2,4.6,9.3,7c25,18.9,41.1,36.4,61.5,58.5
				c32.8,35.5,73.7,79.8,174.3,156C-37.1,181.6,36.8,229.7,115,280.7c84.7,55.2,172.2,112.1,275.2,189c4,3,8.1,6.1,12.2,9.1l0,0
				c3.1,2.3,6.2,4.7,9.3,7c25,18.9,41.1,36.4,61.5,58.5c32.8,35.5,73.7,79.8,174.3,156c76.7,58.1,150.6,106.2,228.8,157.1
				c84.7,55.2,172.2,112.1,275.2,189h2.6c-103.6-77.4-191.4-134.6-276.6-190C799.3,805.5,725.4,757.4,648.7,699.3"/>
			<path class="st29" d="M709.3,977.8c-42.8-27.9-84.4-54.9-125.8-83.2c9.8,5.5,20.1,10.8,31,16.4c30.2,15.5,64.4,33.1,107.9,65.1
				c36.1,26.5,51.7,39.6,64.2,50.1c4.7,4,9,7.6,13.8,11.4C769.3,1016.9,739.1,997.3,709.3,977.8 M560,878.4
				c-1.5-1.1-3.1-2.2-4.6-3.2c-19.5-13.9-31.4-25.6-44-37.9c-8.1-7.9-16.3-16-26.8-24.7c15.2,9.6,23.7,13.6,32.6,17.7
				c12.8,5.9,26,12.1,61.7,36.9c36,25.1,46.7,33.9,61.4,46.2c9.8,8.1,21.4,17.8,43.8,34.9c-25.8-16.2-48.1-27.7-68.6-38.3
				C595.1,899.4,577.3,890.2,560,878.4 M480.6,820.8c-31.3-23.7-56.9-44.4-78.2-62.6v0c-3.4-2.9-6.7-5.8-9.9-8.6
				c3.2,2.5,6.4,4.9,9.9,7.4v0c11.5,8.3,25.3,17.5,45.8,30.8c30.6,19.8,46.5,35.3,61.8,50.3c6.7,6.5,13.5,13.2,21.5,20.2
				C514.6,846.2,497.7,833.7,480.6,820.8 M-52,401.1c-42.8-27.9-84.4-54.9-125.8-83.2c9.8,5.5,20.1,10.8,31,16.4
				c30.2,15.5,64.4,33.1,107.9,65.1c36.1,26.5,51.7,39.6,64.2,50.1c4.7,4,9,7.6,13.8,11.4C8,440.2-22.2,420.5-52,401.1
				 M-201.3,301.6c-1.5-1.1-3.1-2.2-4.6-3.2c-19.5-13.9-31.4-25.6-44-37.9c-8.1-7.9-16.3-16-26.8-24.7c15.2,9.6,23.7,13.6,32.6,17.7
				c12.8,5.9,26,12.1,61.7,36.9c36,25.1,46.7,33.9,61.4,46.2c9.8,8.1,21.4,17.8,43.8,34.9c-25.8-16.2-48.1-27.7-68.6-38.3
				C-166.2,322.6-184,313.5-201.3,301.6 M787.9,1025.3c-12.5-10.5-28.1-23.6-64.2-50.2c-7.1-5.2-13.9-10-20.5-14.5
				c-34.5-25.8-49.4-38.2-61.5-48.2c-14.8-12.3-25.5-21.2-61.5-46.3C544.3,841.2,531,835,518.2,829c-11.2-5.2-21.8-10.1-46.4-26.7
				l0,0c-6.5-4.9-13.9-10.1-22.4-15.6c-21.3-13.8-35.3-23-47-31.6v0c-18.4-13.5-31.1-25.2-57.6-50l0,0c-15-15-27.1-28.1-38.3-40.2
				c-20.5-22.2-36.7-39.7-61.7-58.7c-63.8-48.4-121.6-88.9-176.2-125.7c-6-4.1-11-7.7-15.4-10.9c-11-8.1-18-14-26.5-21.1
				C14.1,438-1.5,424.9-37.6,398.4c-7.1-5.2-13.9-10-20.5-14.5c-34.5-25.8-49.4-38.2-61.5-48.2c-14.8-12.3-25.5-21.2-61.5-46.3
				c-35.8-24.9-49.1-31.1-61.9-37.1c-11.2-5.2-21.8-10.1-46.4-26.7l0,0c-6.5-4.9-13.9-10.1-22.4-15.6c-21.3-13.8-35.3-23-47-31.6
				v1.9c11.5,8.3,25.3,17.5,45.8,30.8c30.6,19.8,46.5,35.3,61.8,50.3c6.7,6.5,13.5,13.2,21.5,20.2c-16.9-12.1-33.9-24.6-51-37.5
				c-31.3-23.7-56.9-44.4-78.2-62.6v2c21,18,46.2,38.3,76.9,61.5c25.2,19.1,50,37.1,74.9,54.4c0.1,0,0.1,0.1,0.2,0.1
				c1.5,1.1,3,2.1,4.4,3.1c49.2,34.3,98.4,66.3,149.3,99.5c33.6,21.9,67.6,44,102.8,67.5c5.9,3.9,11.8,7.9,17.8,11.9
				c3.3,2.3,7,4.8,11,7.4l0,0c51.3,34.8,105.6,73.1,165.2,118.3c25,18.9,41.1,36.4,61.5,58.5c22.8,24.7,49.5,53.6,97.4,94.4
				c21.1,18,46.2,38.3,76.9,61.5c25.2,19.1,50,37.1,74.9,54.4c0.1,0.1,0.1,0.1,0.2,0.1c1.5,1.1,3,2.1,4.4,3.1
				c49.2,34.3,98.4,66.3,149.3,99.5c33.6,21.9,67.6,44,102.8,67.5h3.5C803.4,1038.3,796.4,1032.4,787.9,1025.3"/>
			<path class="st29" d="M458.8,598.4c-21.3-16.2-40-30.9-56.4-44.4v0c-8.6-7-16.5-13.7-24-20.2l0,0c-2.5-2.2-4.9-4.3-7.1-6.1
				c-10.1-8.8-19.2-17.1-27.5-24.9c12.7,10.3,23.3,17.2,35.6,25.2c6.9,4.5,14.4,9.4,23,15.4c4.5,3.1,9.3,6.6,14.5,10.4
				c22.7,16.8,30.3,26.8,37.5,36.4c3.2,4.3,6.4,8.4,10.8,13C463,601.6,460.9,600,458.8,598.4 M345,509.9c-10.6-6-20.6-11.7-40-31.2
				c-3.1-3.1-5.9-6.1-8.5-9.1c-11.6-13-18.9-24.4-25.5-34.6c-3.6-5.7-7.1-11-11-16.3c7.6,7.7,15.1,15.8,23.2,24.6
				c7.6,8.2,15.6,16.9,24.7,26.3c13.3,13.8,29,29.3,48.9,47.3C352.6,514.1,348.8,512,345,509.9 M1010.7,982.9
				c-3.6-3.7-7.8-7.5-12.6-11.2c-4.3-3.7-8.9-7.3-13.8-11v0c-112.5-85.2-206.2-146.2-296.8-205.2c-70.5-45.9-137.4-89.5-206.1-140.1
				c-13.9-10.4-19.5-17.9-25.5-25.8c-7-9.2-15-19.7-37.8-36.7c-5.7-4.2-10.9-7.9-15.7-11.3v0c-8.1-5.6-15.3-10.3-21.8-14.6
				c-19.2-12.5-34.3-22.4-59.8-46.6l0,0c-3.7-3.7-7.2-7.3-10.6-10.8h0c-9.4-9.7-17.6-18.6-25.4-27.1c-12.4-13.4-23.2-25.1-35.3-36.4
				c-3.6-3.7-7.8-7.5-12.6-11.2c-4.3-3.7-8.9-7.3-13.8-11l0,0C110.5,298.7,16.8,237.7-73.8,178.7c-70.5-45.9-137.4-89.5-206.1-140.1
				c-13.9-10.4-19.5-17.9-25.5-25.8c-7-9.2-15-19.7-37.8-36.7c-5.7-4.2-10.9-7.9-15.7-11.3v1.8c4.5,3.1,9.3,6.6,14.5,10.4
				c22.7,16.8,30.3,26.8,37.5,36.4c3.2,4.3,6.4,8.4,10.8,13c-2.1-1.6-4.2-3.2-6.3-4.8c-21.3-16.2-40-30.9-56.4-44.4v2
				c16.1,13.2,34.4,27.6,55.2,43.3c7.6,5.7,15.1,11.4,22.6,16.9c0,0,0.1,0,0.1,0.1h0c68.6,50.7,135.6,94.3,206.1,140.1
				c90.6,59,184.2,119.9,296.7,205.1c4.8,3.7,9.4,7.3,13.6,10.9l0,0c0,0,0.1,0.1,0.1,0.1c4.4,3.7,8.5,7.4,12.5,11.1
				c8.9,9.2,14.9,18.4,21.4,28.7c6.5,10.1,13.7,21.3,24.9,34c2.8,3.2,5.9,6.5,9.3,9.9c19.6,19.6,29.7,25.4,40.4,31.5
				c7.4,4.2,14.9,8.5,26,17.6c9.8,8.5,20.5,17.6,32.4,27.4v0c16.1,13.2,34.4,27.6,55.2,43.3c7.6,5.7,15.1,11.4,22.6,16.9
				c0,0,0.1,0,0.1,0.1v0c68.6,50.7,135.6,94.3,206.1,140.2c90.6,59,184.2,119.9,296.7,205.1h0c4.8,3.7,9.4,7.3,13.6,10.9l0,0
				c0,0,0.1,0.1,0.1,0.1c4.4,3.7,8.5,7.4,12.5,11.1c8.9,9.2,14.9,18.4,21.4,28.7c6.5,10.1,13.7,21.3,24.9,34h2.1
				c-11.6-13-18.9-24.4-25.5-34.6c-3.6-5.7-7.1-11-10.9-16.3c7.6,7.7,15.1,15.8,23.2,24.6c7.6,8.2,15.6,16.9,24.7,26.3h2.2
				c-9.4-9.7-17.6-18.6-25.4-27.1C1033.6,1005.9,1022.8,994.2,1010.7,982.9"/>
			<path class="st29" d="M252.3,469.6c-56.6-47.1-86.1-79-111-105.9c-20.5-22.2-36.7-39.7-61.7-58.7c-1.5-1.1-3-2.2-4.5-3.4
				c8.9,5.6,15.9,9.4,22.4,13c14.7,8.1,27.3,15,54.9,37.4c27.6,22.4,41.2,37.9,54.5,53c11.3,12.9,21.9,25,40.4,40.6
				c12.6,10.6,18.6,17.7,22.7,24c1.8,2.8,3.3,5.4,4.7,8c4,7.2,8,14.5,20.2,26.2C279.2,491.6,265,480.2,252.3,469.6 M969.6,981
				c-13.2-15.1-26.9-30.7-54.6-53.2c-27.7-22.4-40.4-29.4-55.2-37.6c-12.1-6.6-25.8-14.2-50.4-32.1C710.7,785,626.1,730,544.1,676.6
				c-48.3-31.5-95-61.9-141.7-94.2v0c-28-19.4-56-39.5-84.4-60.9c-30.2-23.6-36-34.2-41.7-44.4c-1.4-2.5-2.7-4.9-4.4-7.5
				c-4.2-6.5-10.2-13.8-23.4-24.9c-18.4-15.5-29-27.6-40.3-40.4c-13.2-15.1-26.9-30.7-54.6-53.2c-27.7-22.4-40.4-29.4-55.2-37.6
				c-12.1-6.6-25.8-14.2-50.4-32.1c-98.8-73.2-183.3-128.2-265.3-181.6c-48.3-31.5-95-61.9-141.7-94.2v1.8
				c46.3,32,92.6,62.2,140.5,93.4c82,53.4,166.5,108.4,265.1,181.5v0c0.1,0,0.1,0.1,0.2,0.1c10.3,7.6,20.7,15.5,31.4,23.5
				c25,18.9,41.1,36.4,61.5,58.5c24.7,26.8,54.1,58.5,110.1,105.1c18.3,15.2,39.4,32.1,64.2,50.8c0.9,0.7,1.8,1.3,2.7,2
				c0,0,0,0,0.1,0h0c28.8,21.7,57.2,42.1,85.6,61.7v0c46.3,32,92.6,62.2,140.5,93.4C624.9,731,709.4,786,808,859.1l0,0
				c0.1,0,0.1,0.1,0.2,0.1c10.3,7.6,20.7,15.5,31.4,23.5c25,18.9,41.1,36.4,61.5,58.5c24.7,26.8,54.1,58.5,110.1,105.1h2.4
				c-56.6-47.1-86.1-79-111-105.9c-20.5-22.2-36.7-39.7-61.7-58.7c-1.5-1.1-3-2.2-4.4-3.4c8.9,5.6,15.9,9.4,22.4,13
				c14.7,8.1,27.3,15,54.9,37.4c27.6,22.4,41.2,37.9,54.4,53c11.3,12.9,21.9,25,40.4,40.6c12.6,10.6,18.6,17.7,22.7,24h2
				c-4.2-6.5-10.2-13.8-23.4-24.9C991.5,1006,980.8,993.9,969.6,981"/>
			<path class="st29" d="M1100.7,1028.4c-112.5-85.2-206.2-146.2-296.8-205.2c-78.2-50.9-152.1-99-228.7-157.1
				C476,591,435,547,402.4,511.8v0c-0.4-0.5-0.9-0.9-1.3-1.4c-13.9-15.1-25.9-28-40-40.7h0c-6.6-6-13.7-11.9-21.7-17.9l0,0
				C226.9,366.5,133.2,305.5,42.6,246.5c-78.2-50.9-152.1-99-228.7-157.1C-285.3,14.3-326.3-29.7-358.9-65v2.4
				c32.4,35,73.7,78.9,171.5,153c76.7,58.1,150.6,106.2,228.8,157.1c90.6,59,184.2,119.9,296.7,205.1c7.6,5.7,14.3,11.3,20.6,17
				c14.5,13,26.7,26.1,40.9,41.5c0.9,1,1.8,2,2.7,3c32.4,35,73.7,78.9,171.5,153c76.7,58.1,150.6,106.2,228.8,157.1
				c90.6,59,184.2,119.9,296.7,205.1h0c7.6,5.7,14.3,11.3,20.6,17h2.3C1115.8,1040.4,1108.7,1034.5,1100.7,1028.4L1100.7,1028.4z"/>
			<path class="st29" d="M402.4,997.2c-59.9-41.6-115.4-77.7-169.7-113.1c-78.2-50.9-152.1-99-228.7-157.1
				c-100.5-76.1-141.3-120.3-174.1-155.8c-20.5-22.2-36.7-39.7-61.7-58.7c-19.8-15-39.1-29.3-57.8-42.9
				c-23.8-17.3-46.8-33.6-69.2-49.2v1.8c21.6,15,43.7,30.7,66.6,47.3c19.2,13.9,38.9,28.5,59.2,43.9c25,18.9,41.1,36.4,61.5,58.5
				c32.8,35.5,73.7,79.8,174.3,156c76.7,58.1,150.6,106.2,228.8,157.1c54.7,35.6,110.5,71.9,170.9,113.9v0
				c21.6,15,43.7,30.7,66.6,47.3h2.6C447.8,1029.1,424.8,1012.7,402.4,997.2"/>
			<path class="st29" d="M196.4,831.2c-23.3-15.2-46.3-30.1-69.1-45.2c11,5.9,20.2,10,29.3,14c15.5,6.8,31.5,13.9,55.8,29.8
				c23.3,15.2,32.2,23.8,42.6,33.7c7,6.7,14.6,14,27.6,24.2C253.2,868.3,224.7,849.7,196.4,831.2 M-32.3,674.2
				c-23.7-18-44.1-34.2-61.9-48.9c7,4.8,13.9,9.3,21.2,14c10.5,6.8,21.3,13.8,34.2,23c18.2,13,28.1,22.4,38.7,32.2
				c6.1,5.7,12.3,11.5,20.2,18.2C2.7,700.3-14.8,687.5-32.3,674.2 M402.4,969.8L402.4,969.8c-30.7-21.8-60.1-42.1-88.7-61.3
				c-33.7-23.2-46.2-35.2-57.3-45.8c-10.4-10-19.3-18.6-42.8-33.9c-24.5-16-40.5-23.1-56.1-29.9C142,792,126.1,785,101.6,769
				c-17-11.4-34-22.9-51-34.7c-25.2-18-37.5-29.5-49.4-40.6c-10.6-9.9-20.6-19.3-38.8-32.4c-12.9-9.2-23.7-16.3-34.2-23.1
				c-14.5-9.4-27.7-17.9-42.5-30c-6.8-5.9-13.2-11.5-19.1-16.9c-0.3-0.3-0.7-0.6-1-0.9l0,0c-32.6-29.5-53.5-52.1-71.9-72
				c-16.9-18.3-30.8-33.4-49.2-48.7c-3.9-3.3-8.1-6.6-12.5-10c-31.6-24-61.8-46-90.7-66.6v1.9c28.6,20.4,58.3,42.1,89.5,65.7
				c4,3,7.8,6,11.4,9c18.9,15.6,33,30.9,50.2,49.5c18.6,20.1,39.8,43.1,73,73c6.8,6.5,13.2,12,19.2,17c22.1,19.1,48.8,40.8,82.1,66
				c27.9,21.1,55.5,41,83,60.1c0.1,0.1,0.2,0.1,0.3,0.2l0,0c13.8,9.6,27.5,18.9,41.3,28.2l0,0c3.3,2.3,6.5,4.4,9.5,6.4
				c31.2,20.9,62.6,41.3,94.8,62.3c38.1,24.8,76.9,50,117.3,77.2c4.2,2.9,8.7,5.9,13.6,9.2l0,0c24.7,16.7,50,34.3,76.3,53v0
				c28.6,20.4,58.3,42.1,89.5,65.7c4,3,7.8,6,11.4,9h2.4c-3.9-3.3-8.1-6.6-12.5-10C461.5,1012.5,431.4,990.4,402.4,969.8"/>
			<path class="st29" d="M402.4,918.5L402.4,918.5c-59.9-41.6-115.4-77.7-169.7-113.1c-78.2-50.9-152.1-99-228.7-157.1
				c-100.5-76.1-141.3-120.3-174.1-155.8c-7.6-8.2-14.5-15.7-21.6-23c-12.1-12.3-24.3-23.7-40.1-35.7c-45-34.1-87-64.3-127-92.1v1.8
				c39.6,27.5,81.2,57.5,125.8,91.2c15.4,11.7,27.4,22.8,39.2,34.8c7.3,7.5,14.5,15.3,22.4,23.7c32.8,35.5,73.7,79.8,174.3,156
				c76.7,58.1,150.6,106.2,228.8,157.1c54.7,35.6,110.5,71.9,170.9,113.9v0c39.6,27.5,81.2,57.5,125.8,91.2
				c15.4,11.7,27.4,22.8,39.2,34.8h2.2c-12-12.3-24.3-23.7-40.1-35.7C484.4,976.5,442.4,946.3,402.4,918.5"/>
			<path class="st29" d="M412.9,945.3c-3.5-2.7-7-5.3-10.5-8v0c-107.8-81.1-198.5-140.1-286.2-197.2
				c-78.2-50.9-152.1-99-228.7-157.1c-64.6-49-104.6-84.7-133.6-113.4c-16.1-15.9-28.8-29.7-40.5-42.4
				c-20.5-22.2-36.7-39.7-61.7-58.7c-3.5-2.7-7-5.3-10.5-8v1.9c3.1,2.3,6.2,4.6,9.3,7c25,18.9,41.1,36.4,61.5,58.5
				c11.5,12.5,24,26,39.7,41.6c29.1,28.9,69.2,64.9,134.6,114.4C-37.1,642.1,36.8,690.2,115,741.2c88.1,57.3,179,116.6,287.4,198.1
				v0c3.1,2.3,6.2,4.7,9.3,7c25,18.9,41.1,36.4,61.5,58.5c11.5,12.5,24,26,39.7,41.6h2.3c-16.1-15.9-28.8-29.7-40.5-42.4
				C454.2,981.8,438,964.3,412.9,945.3"/>
			<path class="st29" d="M402.4,1016.8c-51.9-35.6-100.7-67.3-148.5-98.5c-78.2-50.9-152.1-99-228.7-157.1
				C-75.4,685.1-116.2,640.9-149,605.4c-20.5-22.2-36.7-39.7-61.7-58.7c-37-28.1-72-53.5-105.6-77.1c-14.5-10.2-28.7-20-42.7-29.6
				v1.8c13.1,9,26.5,18.2,40,27.8c33.9,23.9,69.4,49.6,106.9,78c25,18.9,41.1,36.4,61.5,58.5c32.8,35.5,73.7,79.8,174.3,156
				c76.7,58.1,150.6,106.2,228.8,157.1c48.2,31.4,97.3,63.4,149.7,99.3c13.1,9,26.5,18.2,40,27.8h2.6
				C430.6,1036.2,416.3,1026.3,402.4,1016.8"/>
			<path class="st29" d="M71.3,605.7C-11.4,543-53.7,502-84.4,469.6h0c-6.6-6.9-12.6-13.5-18.4-19.7c-3.3-3.6-6.5-7.1-9.7-10.4
				c11.2,9.7,23.4,19.6,36.5,30.1c3.3,2.6,6.6,5.3,9.9,8c17.2,13.8,35,28.1,53.7,44c21,17.9,37.6,35.1,53.6,51.8
				c13.7,14.2,26.9,27.9,42.1,41.4C79.3,611.8,75.3,608.8,71.3,605.7 M596.8,968c-71-53.8-134.5-97.9-194.4-137.9v0
				c-35.1-23.4-68.9-45.5-102.3-67.2c-65.4-42.6-127.7-83.2-191.2-129.3c-26.5-19.7-45.8-39.8-66.1-60.9
				c-16.1-16.7-32.7-34-53.7-51.9c-18.7-15.9-36.5-30.2-53.7-44c-3-2.4-5.9-4.7-8.8-7c-19.6-15.8-37.2-30.2-52.7-44.5
				c-11.5-11.7-23.3-22.5-38.4-33.9c-71-53.8-134.5-97.9-194.4-138v1.8c59.6,39.8,122.7,83.7,193.1,137.1c9.4,7.1,17.5,14,25.1,21
				l0,0c4.2,4.3,8.5,8.5,13.1,12.7c7.6,7.8,15.1,15.9,23.3,24.7c5.6,6,11.4,12.3,17.6,18.9c30.8,32.5,73.1,73.7,156.6,137
				c12.6,9.5,25.1,18.8,37.5,27.8c2.8,2.1,5.6,4.1,8.6,6.2l0,0c60.6,43.6,120.3,82.5,182.7,123.1c33.8,22,68,44.3,103.5,68
				c59.6,39.8,122.7,83.7,193.1,137.1c9.4,7.1,17.5,14,25.1,21l0,0c4.2,4.3,8.5,8.5,13.1,12.7c7.6,7.8,15.1,15.9,23.3,24.7
				c5.6,6,11.4,12.3,17.6,18.9h2.2c-6.6-6.9-12.6-13.5-18.4-19.7c-3.3-3.6-6.5-7.1-9.7-10.4c11.2,9.7,23.4,19.6,36.5,30.1h2.5
				c-19.6-15.8-37.2-30.2-52.7-44.5C623.7,990.2,611.8,979.4,596.8,968"/>
			<path class="st29" d="M402.4,820L402.4,820c-35.7-24.3-71.3-49.5-107.5-77c-100.5-76.1-141.3-120.3-174.1-155.8
				C100.3,565,84.1,547.5,59,528.5c-27.7-21-54.3-40.5-79.9-58.9c-78.5-56.2-148.5-101.8-216.8-146.3
				c-41.3-26.9-81.3-52.9-121.2-80.1v1.8c39.5,26.9,79.2,52.7,120,79.3c67.9,44.2,137.5,89.5,215.4,145.3
				c26.1,18.7,53.1,38.5,81.3,59.8c25,18.9,41.1,36.4,61.5,58.5c32.8,35.5,73.7,79.8,174.3,156c36.6,27.8,72.7,53.2,108.8,77.8v0
				c39.5,26.9,79.2,52.7,120,79.3c67.9,44.2,137.5,89.5,215.4,145.3h2.6c-78.5-56.2-148.5-101.8-216.8-146.3
				C482.3,873.2,442.3,847.1,402.4,820"/>
			<path class="st29" d="M419.3,797.6c-5.8-4.4-11.5-8.7-16.9-12.9v0c-88.3-68.3-126.3-109.4-157.2-142.8
				c-20.5-22.2-36.7-39.7-61.7-58.7c-56.8-43.1-108.9-79.9-158.1-113.5c-48.2-32.9-93.8-62.5-138.6-91.7
				c-78.2-50.9-152.1-99-228.7-157.1c-5.8-4.4-11.5-8.7-16.9-12.9v1.9c5.1,3.9,10.3,7.9,15.6,12C-266.6,279.9-192.7,328-114.4,379
				c44.4,28.9,89.4,58.2,137.1,90.7c49.7,33.8,102.2,71,159.5,114.4c25,18.9,41.1,36.4,61.5,58.5c31.1,33.6,69.3,75.1,158.6,144v0
				c5.1,3.9,10.3,7.9,15.6,12c76.7,58.1,150.6,106.2,228.8,157.1c44.3,28.9,89.4,58.2,137.1,90.7h2.7
				c-48.2-32.9-93.8-62.5-138.6-91.7C569.8,903.7,495.9,855.6,419.3,797.6"/>
			<path class="st29" d="M402.4,806.4L402.4,806.4c-20.5-14.5-41-29.5-61.7-45.1c-100.5-76.1-141.3-120.3-174.1-155.8
				c-20.5-22.2-36.7-39.7-61.7-58.7c-37-28.1-72-53.5-105.6-77.1c-68.3-48.1-130.4-88.5-191.2-128.1
				c-57.1-37.2-111.8-72.8-167-111.9v1.9c54.8,38.8,109.2,74.2,165.9,111.1C-132.7,381.8-71,422-3.3,469.6
				c33.9,23.9,69.4,49.6,106.9,78c25,18.9,41.1,36.4,61.5,58.5c32.8,35.5,73.7,79.8,174.3,156c21.1,16,42.1,31.3,63,46v0
				c54.8,38.8,109.2,74.2,165.9,111.1c60.3,39.3,122,79.5,189.7,127.1h2.6c-68.3-48.1-130.4-88.5-191.2-128.1
				C512.3,881.1,457.6,845.5,402.4,806.4"/>
			<path class="st29" d="M402.4,904L402.4,904c-35.1-23.4-68.9-45.5-102.3-67.2c-78.2-50.9-152.1-99-228.7-157.1
				C-29.2,603.6-70,559.4-102.8,523.9c-18.9-20.5-34.1-36.9-56-54.3l0,0c-1.9-1.5-3.7-2.9-5.7-4.4c-71-53.8-134.5-97.9-194.4-137.9
				v1.8c59.6,39.8,122.7,83.7,193.1,137.1c1.5,1.2,3,2.3,4.5,3.5c22.5,17.6,37.9,34.3,57.1,55.1c32.8,35.5,73.7,79.8,174.3,156
				c76.7,58.1,150.6,106.2,228.8,157.1c33.8,22,68,44.3,103.5,68c59.6,39.8,122.7,83.7,193.1,137.1c1.5,1.2,3,2.3,4.5,3.4h2.5
				c-1.9-1.5-3.7-2.9-5.7-4.4C525.8,988.2,462.3,944.1,402.4,904"/>
			<path class="st29" d="M145.9,717.8c-38.5-29.2-68.3-53.7-92.2-74.8c12.4,9.6,25.1,18.7,38.6,28.3c18,12.8,36.6,26.1,58.2,43.2
				c21.8,17.3,36.3,29.3,47.8,39c9.5,7.9,17.5,14.6,26.8,21.9C199,757,172.6,738,145.9,717.8 M402.4,892.9
				c-9.3-6.1-18.5-12.1-27.7-18.1c-35.1-22.9-69.4-45.2-103.4-68.1c-36.6-25.1-50.5-36.7-71.4-54.2c-11.6-9.7-26-21.7-47.9-39
				c-21.6-17.1-40.2-30.4-58.2-43.2c-23.3-16.6-44.3-31.6-65.4-50.6c-8.3-7.9-15.8-15.2-22.7-22.2c-0.2-0.2-0.4-0.4-0.5-0.6l0,0
				c-12.7-12.9-23.3-24.4-33.2-35c-20.5-22.2-36.7-39.7-61.7-58.7c-15.4-11.7-30.4-22.9-45.2-33.7c-82-60.2-154.3-108-223.9-153.4
				v1.8c68.8,44.9,140.4,92.3,221.3,151.6h0c15.2,11.1,30.6,22.6,46.5,34.6c25,18.9,41.1,36.4,61.5,58.5
				c10,10.8,20.8,22.5,33.8,35.6c7.7,8.1,15.2,15.4,22.7,22.2c27.5,26,64.2,57.5,117.8,98.1c42.2,32,83.6,60.9,125.3,89
				c0,0,0.1,0.1,0.1,0.1c34,22.9,68.3,45.2,103.4,68c9.6,6.2,19.2,12.5,28.9,18.8c68.8,44.9,140.4,92.3,221.3,151.6h2.6
				C544.3,986.2,472,938.3,402.4,892.9"/>
			<path class="st29" d="M404,861.3c7.9,4.2,15.7,8.1,23.7,12.2c20.2,10.1,41.1,20.6,64.2,37c20.6,14.7,29.1,23.5,38.2,32.8
				c4.4,4.5,8.9,9.1,14.8,14.5C495.1,922.2,448.7,890.9,404,861.3 M-357.3,284.6c7.9,4.2,15.7,8.1,23.7,12.2
				c20.2,10.1,41.1,20.6,64.2,37c20.6,14.7,29.1,23.5,38.2,32.8c4.4,4.5,8.8,9.1,14.8,14.5C-266.2,345.5-312.6,314.1-357.3,284.6
				 M567.7,974.3c-19.2-14.2-27.8-23.1-36.2-31.8c-9.1-9.4-17.7-18.3-38.4-33c-23.2-16.5-44.2-27-64.4-37.2
				c-8.9-4.5-17.6-8.8-26.3-13.6c-7.7-4.2-15.4-8.7-23.4-13.9c-16.5-10.8-32.8-21.4-49-32c-78.2-50.9-152.1-99-228.7-157.1
				C0.8,579.7-40.1,535.6-72.8,500.1c-10.2-11-19.3-20.9-29-30.4c-9.8-9.6-20.1-18.7-32.7-28.3c-20.2-15.3-39.9-29.9-59-43.8
				c-19.2-14.2-27.8-23.1-36.2-31.8c-9.1-9.4-17.7-18.3-38.4-33c-23.2-16.5-44.2-27-64.4-37.1c-8.9-4.5-17.6-8.8-26.3-13.6v3.3
				c51.6,34.1,105.4,70.6,164.1,113.2c1.6,1.2,3.4,2.5,5.2,3.8l0,0c17.5,12.7,35.4,26,53.8,40c12.2,9.2,22.2,18.1,31.7,27.3
				c10,9.7,19.4,19.9,29.8,31.2c32.8,35.5,73.7,79.8,174.3,156C176.6,714.9,250.5,763,328.8,814c24.2,15.8,48.6,31.7,73.6,48.1
				c51.6,34.1,105.4,70.6,164.1,113.2c1.6,1.2,3.4,2.5,5.2,3.8v0c17.5,12.7,35.4,26,53.8,40c12.2,9.2,22.2,18.1,31.7,27.3h2.3
				c-9.8-9.6-20.1-18.7-32.7-28.3C606.5,1002.8,586.8,988.2,567.7,974.3"/>
			<path class="st29" d="M402.4-97.9c3.1,2.3,6.2,4.6,9.3,7c25,18.9,41.1,36.4,61.5,58.5c32.8,35.5,73.7,79.8,174.3,156
				c76.7,58.1,150.6,106.2,228.8,157.1c84.7,55.2,172.2,112.1,275.2,189c4,3,8.1,6.1,12.2,9.1v-1.9c-3.2-2.4-6.5-4.8-9.7-7.2
				c-103.6-77.4-191.4-134.6-276.6-190c-78.2-50.9-152.1-99-228.7-157.1C548.3,46.5,507.5,2.3,474.7-33.2
				c-20.5-22.2-36.7-39.7-61.7-58.7c-3.5-2.7-7-5.3-10.5-8v0c-3.2-2.4-6.5-4.8-9.7-7.2h-2.5C394.2-104.1,398.3-101,402.4-97.9"/>
			<path class="st29" d="M688.2,62.6c10.5,6.8,21.3,13.8,34.2,23c18.2,13,28.1,22.4,38.7,32.2c6.1,5.7,12.3,11.5,20.2,18.2
				c-17.4-12.4-34.8-25.2-52.4-38.6c-23.7-18-44.1-34.2-61.9-48.9C674,53.4,681,57.8,688.2,62.6 M917.9,223.3
				c15.5,6.8,31.5,13.9,55.8,29.8c23.3,15.2,32.2,23.8,42.6,33.7c7,6.7,14.6,14,27.6,24.2c-29.4-19.5-57.9-38.1-86.2-56.5
				c-23.3-15.2-46.3-30.1-69.1-45.2C899.6,215.2,908.8,219.3,917.9,223.3 M626.4,15.5c6.8,6.5,13.2,12,19.2,17
				c22.1,19.1,48.8,40.8,82.1,66c27.9,21.1,55.5,41,83,60.1c0.1,0.1,0.2,0.1,0.3,0.2l0,0c13.8,9.6,27.5,18.9,41.3,28.2v0
				c3.3,2.3,6.5,4.4,9.5,6.4c31.2,20.9,62.6,41.3,94.8,62.3c38.2,24.8,76.9,50,117.3,77.2c4.2,2.9,8.7,5.9,13.6,9.2l0,0
				c24.7,16.7,50,34.3,76.3,53v-1.9c-30.7-21.8-60.1-42.1-88.7-61.3c-33.7-23.2-46.2-35.2-57.3-45.8c-10.4-10-19.3-18.6-42.8-33.9
				c-24.5-16-40.5-23.1-56.1-29.9c-15.5-6.8-31.4-13.9-55.9-29.9c-17-11.4-34-22.9-51-34.7c-25.2-18-37.5-29.5-49.4-40.6
				c-10.6-9.9-20.6-19.3-38.8-32.4c-12.9-9.2-23.7-16.3-34.2-23.1c-14.5-9.4-27.7-17.9-42.5-30c-6.8-5.9-13.2-11.5-19.1-16.9
				c-0.3-0.3-0.7-0.6-1-0.9l0,0c-32.6-29.5-53.5-52.1-71.9-72C538-76.6,524-91.7,505.6-107.1h-2.4c18.9,15.6,33,30.9,50.2,49.5
				C572-37.4,593.2-14.5,626.4,15.5"/>
			<path class="st29" d="M868.9,57.8c2.8,2.1,5.6,4.1,8.6,6.2l0,0c60.6,43.6,120.3,82.5,182.7,123.1c33.8,22,68,44.3,103.5,68v-1.8
				c-35.1-23.4-68.9-45.5-102.3-67.2c-65.4-42.6-127.7-83.2-191.2-129.3C843.7,37.1,824.3,17,804-4.1c-16.1-16.7-32.7-34-53.7-51.9
				c-18.7-15.9-36.5-30.2-53.7-44c-3-2.4-5.9-4.7-8.8-7h-2.5c3.3,2.6,6.6,5.3,9.9,8c17.2,13.8,35,28.1,53.7,44
				c21,17.9,37.6,35.1,53.6,51.8c13.7,14.2,26.9,27.9,42.1,41.4c-4-3-8-6-12-9c-82.8-62.7-125-103.7-155.7-136.1h-2.2
				c30.8,32.5,73.1,73.8,156.6,137C843.9,39.5,856.4,48.7,868.9,57.8"/>
			<path class="st29" d="M880.6,11.3c32.8,35.5,73.7,79.8,174.3,156c36.6,27.8,72.7,53.2,108.8,77.8v-1.8
				c-35.7-24.3-71.3-49.5-107.5-77C955.7,90.2,914.8,46,882.1,10.5c-20.5-22.2-36.7-39.7-61.7-58.7c-27.7-21-54.3-40.5-79.9-58.9
				h-2.6c26.1,18.7,53.1,38.5,81.3,59.9C844-28.3,860.1-10.9,880.6,11.3"/>
			<path class="st29" d="M876.3,164.4c88.1,57.3,179,116.6,287.4,198.1v-1.9c-107.8-81.1-198.5-140.1-286.2-197.2
				c-78.2-50.9-152.1-99-228.7-157.1c-64.6-49-104.6-84.7-133.6-113.4h-2.3C542-78.2,582.1-42.2,647.5,7.3
				C724.2,65.4,798.1,113.5,876.3,164.4"/>
			<path class="st29" d="M853.7,94.6c18,12.8,36.6,26.1,58.2,43.2c21.8,17.3,36.3,29.3,47.8,39c9.5,7.9,17.5,14.6,26.8,21.9
				c-26.3-18.3-52.7-37.3-79.3-57.6c-38.5-29.2-68.3-53.7-92.2-74.8C827.5,75.9,840.2,85,853.7,94.6 M731.7-14
				c10,10.9,20.8,22.5,33.8,35.6c7.7,8.1,15.2,15.4,22.7,22.2c27.5,26,64.2,57.5,117.8,98.1c42.2,32,83.6,60.9,125.3,89
				c0,0,0.1,0.1,0.1,0.1v0c34,22.9,68.3,45.2,103.4,68c9.6,6.2,19.2,12.5,28.9,18.8v-1.8c-9.3-6.1-18.5-12.1-27.7-18.1
				c-35.1-22.9-69.4-45.2-103.4-68.1c-36.6-25.1-50.5-36.7-71.4-54.2c-11.6-9.7-26-21.7-47.9-39c-21.6-17.1-40.2-30.4-58.2-43.2
				C831.6,77,810.6,62,789.6,43c-8.3-7.9-15.8-15.2-22.7-22.2c-0.2-0.2-0.4-0.4-0.5-0.6l0,0C753.6,7.4,743-4,733.1-14.7
				c-20.5-22.2-36.7-39.7-61.7-58.7C656-85.1,641-96.3,626.2-107.1h-2.6c15.2,11.1,30.6,22.6,46.5,34.6
				C695.1-53.5,711.2-36.1,731.7-14"/>
			<path class="st29" d="M861.3,80.1c76.7,58.1,150.6,106.2,228.8,157.1c24.2,15.8,48.6,31.7,73.6,48.1v-3.3
				c-7.7-4.2-15.4-8.7-23.4-13.9c-16.5-10.8-32.8-21.4-49-32c-78.2-50.9-152.1-99-228.7-157.1C762,3,721.2-41.2,688.4-76.7
				c-10.2-11-19.3-20.9-29-30.4h-2.3c10,9.7,19.4,19.8,29.8,31.2C719.8-40.4,760.7,3.9,861.3,80.1"/>
			<path class="st29" d="M764,72.6c76.7,58.1,150.6,106.2,228.8,157.1c54.7,35.6,110.5,71.9,170.9,113.9v-1.8
				c-59.9-41.6-115.4-77.7-169.7-113.1c-78.2-50.9-152.1-99-228.7-157.1C664.8-4.5,624-48.6,591.2-84.1c-7.6-8.2-14.5-15.7-21.6-23
				h-2.2c7.3,7.5,14.5,15.3,22.4,23.7C622.5-47.8,663.4-3.6,764,72.6"/>
			<path class="st29" d="M831.3,103.9C908,162,981.9,210.1,1060.2,261.1c33.8,22,68,44.3,103.5,68v-1.8
				c-35.1-23.4-68.9-45.5-102.3-67.2c-78.2-50.9-152.1-99-228.7-157.1C732.1,26.9,691.3-17.3,658.5-52.8
				c-18.9-20.5-34.1-36.9-56-54.3H600c22.5,17.6,37.9,34.3,57.1,55.1C689.9-16.5,730.8,27.7,831.3,103.9"/>
			<path class="st29" d="M589.7-4.7c32.8,35.5,73.7,79.8,174.3,156c76.7,58.1,150.6,106.2,228.8,157.1
				c54.7,35.6,110.5,71.9,170.9,113.9v-1.8c-59.9-41.6-115.4-77.7-169.7-113.1c-78.2-50.9-152.1-99-228.7-157.1
				C664.8,74.2,624,30,591.2-5.5c-20.5-22.2-36.7-39.7-61.7-58.7c-19.8-15-39.1-29.3-57.9-42.9H469c19.2,13.9,38.9,28.5,59.2,43.9
				C553.1-44.3,569.3-26.8,589.7-4.7"/>
			<path class="st29" d="M926.4,29.5c32.8,35.5,73.7,79.8,174.3,156c21.1,16,42.1,31.3,63,46v-1.9c-20.5-14.5-41-29.5-61.7-45.2
				C1001.5,108.4,960.7,64.2,927.9,28.7C907.4,6.5,891.2-11,866.2-30c-37-28.1-72-53.5-105.6-77.1H758c33.9,23.9,69.4,49.6,106.9,78
				C889.9-10.1,906,7.3,926.4,29.5"/>
			<path class="st29" d="M839.6-87.8L839.6-87.8c51.3,34.8,105.6,73.1,165.2,118.2c25,18.9,41.1,36.4,61.5,58.5
				c22.8,24.7,49.5,53.6,97.4,94.4v-2c-3.4-2.9-6.7-5.8-9.9-8.6c3.2,2.5,6.4,4.9,9.9,7.4v-1.9c-18.4-13.5-31.1-25.2-57.6-50l0,0
				c-15.1-15-27.1-28.1-38.3-40.2c-20.5-22.2-36.7-39.7-61.7-58.7C942.2-18.8,884.4-59.4,829.8-96.2c-6-4.1-11-7.7-15.4-10.9h-3.5
				c5.9,3.9,11.8,7.9,17.8,11.9C832-92.9,835.6-90.4,839.6-87.8"/>
			<path class="st29" d="M1163.7,113.9v-1.8c-50.3-33.4-99.7-67.4-150.4-105.7c-64.6-49-104.6-84.7-133.6-113.4h-2.3
				C906.6-78.2,946.7-42.2,1012,7.3C1063.1,46,1113,80.3,1163.7,113.9"/>
			<path class="st29" d="M1163.7,76.1v-1.8c-42.8-28.7-85.2-58.3-128.4-91.1c-48.4-36.6-82.9-65.9-109.4-90.3h-2.3
				C950.2-82.5,985-52.9,1034-15.8C1077.7,17.3,1120.5,47.1,1163.7,76.1"/>
			<path class="st29" d="M1163.7,100.9V99c-28.9-20-57.8-40.7-87-62.9c-89-67.4-131.1-109.8-162.4-143.2H912
				c31.4,33.6,73.6,76.2,163.3,144.2C1105.1,59.6,1134.4,80.6,1163.7,100.9"/>
			<path class="st29" d="M1163.7,55.1v-1.8c-52.8-34.9-104.5-70.3-157.6-110.5c-24.3-18.4-45-34.9-63.1-49.9h-2.4
				c18.3,15.2,39.5,32.1,64.2,50.8C1058.3-15.7,1110.5,19.9,1163.7,55.1"/>
			<path class="st29" d="M1005,65.8c31.1,33.6,69.3,75.1,158.6,144v-1.9c-88.3-68.3-126.3-109.4-157.2-142.8
				C986,42.9,969.8,25.4,944.8,6.4c-56.8-43.1-108.9-79.9-158.1-113.5H784c49.7,33.8,102.2,71,159.5,114.4
				C968.5,26.2,984.6,43.7,1005,65.8"/>
			<path class="st29" d="M1163.7,126.1v-1.8c-69.2-45.2-135.6-89.1-204.2-141.1c-48.4-36.6-82.9-65.9-109.4-90.3h-2.3
				c26.6,24.6,61.4,54.2,110.4,91.3C1027.2,36.4,1094,80.6,1163.7,126.1"/>
			<path class="st29" d="M555.1,9.6c12.9,8.7,26.3,17.7,46.9,39.2c9.1,9.5,17.1,18.1,24.2,25.7c13.4,14.5,24.9,26.7,38.1,39.1
				C595.8,59.3,560.9,23.2,533.5-6.2C541.2,0.2,548.1,4.8,555.1,9.6 M514.6-24.3L514.6-24.3c0.1,0.1,0.1,0.2,0.2,0.2
				c3.1,3.3,6.2,6.7,9.4,10.2c31.9,34.6,71.5,77.4,166.3,149.9c4.2,3.3,8.5,6.6,13.3,10.1h0c74.8,56.3,147.1,103.4,223.5,153.2
				c73.9,48.1,149.9,97.6,236.4,160.4v-1.9C1077.6,395.3,1002,346,928.5,298.1c-78.2-50.9-152.1-99-228.7-157.1
				c-2.7-2-5.3-4.1-7.9-6.1c-26.6-20.9-42.8-38.3-64.1-61.2c-7.1-7.6-15.1-16.3-24.2-25.7c-20.7-21.6-34.2-30.7-47.2-39.5
				c-12.2-8.2-23.7-16-40.1-33.4c-16.4-17.6-31.2-32.6-52.4-48.6c-15.4-11.7-30.4-22.9-45.2-33.7h-2.6
				c15.2,11.1,30.6,22.6,46.5,34.6C483.6-56.6,498.3-41.8,514.6-24.3"/>
			<path class="st29" d="M610.9,29.5c32.8,35.5,73.7,79.8,174.3,156c76.7,58.1,150.6,106.2,228.8,157.1
				c48.2,31.4,97.3,63.4,149.7,99.3V440c-51.9-35.6-100.7-67.3-148.5-98.5c-78.2-50.9-152.1-99-228.7-157.1
				C685.9,108.4,645.1,64.2,612.3,28.7C591.8,6.5,575.7-11,550.6-30c-37-28.1-72-53.5-105.6-77.1h-2.6c33.9,23.9,69.4,49.6,106.9,78
				C574.3-10.1,590.4,7.3,610.9,29.5"/>
			<rect x="-379.5" y="-122.8" class="st30" width="1563.7" height="1170.4"/>
		</g>
	</g>
</g>
</svg>
